<mxfile host="app.diagrams.net" modified="2023-06-23T08:15:30.659Z" agent="Mozilla/5.0 (X11; Linux x86_64) AppleWebKit/537.36 (KHTML, like Gecko) Chrome/114.0.0.0 Safari/537.36" etag="vz3FnwzvXzTD616jtFcg" version="21.5.0" type="device">
  <diagram name="Page-1" id="ai2Z9y_YJ5XAGZGcfeq_">
    <mxGraphModel dx="1493" dy="841" grid="1" gridSize="10" guides="1" tooltips="1" connect="1" arrows="1" fold="1" page="1" pageScale="1" pageWidth="850" pageHeight="1100" math="0" shadow="0">
      <root>
        <mxCell id="0" />
        <mxCell id="1" parent="0" />
        <mxCell id="7g4eMx9J1FZ1LIrWjxAy-36" style="edgeStyle=orthogonalEdgeStyle;rounded=0;orthogonalLoop=1;jettySize=auto;html=1;entryX=1;entryY=0.5;entryDx=0;entryDy=0;" edge="1" parent="1" source="7g4eMx9J1FZ1LIrWjxAy-2" target="7g4eMx9J1FZ1LIrWjxAy-25">
          <mxGeometry relative="1" as="geometry">
            <Array as="points">
              <mxPoint x="760" y="423" />
            </Array>
          </mxGeometry>
        </mxCell>
        <mxCell id="7g4eMx9J1FZ1LIrWjxAy-2" value="" style="rounded=0;whiteSpace=wrap;html=1;" vertex="1" parent="1">
          <mxGeometry x="490" y="90" width="530" height="150" as="geometry" />
        </mxCell>
        <mxCell id="7g4eMx9J1FZ1LIrWjxAy-1" value="" style="shape=image;html=1;verticalAlign=top;verticalLabelPosition=bottom;labelBackgroundColor=#ffffff;imageAspect=0;aspect=fixed;image=https://cdn4.iconfinder.com/data/icons/socialcones/508/Gitlab-128.png" vertex="1" parent="1">
          <mxGeometry x="450" y="30" width="70" height="70" as="geometry" />
        </mxCell>
        <mxCell id="7g4eMx9J1FZ1LIrWjxAy-6" value="GitLab pipeline" style="text;html=1;align=center;verticalAlign=middle;resizable=0;points=[];autosize=1;strokeColor=none;fillColor=none;" vertex="1" parent="1">
          <mxGeometry x="520" y="60" width="100" height="30" as="geometry" />
        </mxCell>
        <mxCell id="7g4eMx9J1FZ1LIrWjxAy-11" style="edgeStyle=orthogonalEdgeStyle;rounded=0;orthogonalLoop=1;jettySize=auto;html=1;entryX=0;entryY=0.5;entryDx=0;entryDy=0;" edge="1" parent="1" source="7g4eMx9J1FZ1LIrWjxAy-8" target="7g4eMx9J1FZ1LIrWjxAy-9">
          <mxGeometry relative="1" as="geometry" />
        </mxCell>
        <mxCell id="7g4eMx9J1FZ1LIrWjxAy-8" value="build/push images" style="rounded=1;whiteSpace=wrap;html=1;dashed=1;dashPattern=8 8;" vertex="1" parent="1">
          <mxGeometry x="520" y="130" width="120" height="60" as="geometry" />
        </mxCell>
        <mxCell id="7g4eMx9J1FZ1LIrWjxAy-12" style="edgeStyle=orthogonalEdgeStyle;rounded=0;orthogonalLoop=1;jettySize=auto;html=1;entryX=0;entryY=0.5;entryDx=0;entryDy=0;" edge="1" parent="1" source="7g4eMx9J1FZ1LIrWjxAy-9" target="7g4eMx9J1FZ1LIrWjxAy-10">
          <mxGeometry relative="1" as="geometry" />
        </mxCell>
        <mxCell id="7g4eMx9J1FZ1LIrWjxAy-9" value="start cluster" style="rounded=1;whiteSpace=wrap;html=1;" vertex="1" parent="1">
          <mxGeometry x="690" y="130" width="120" height="60" as="geometry" />
        </mxCell>
        <mxCell id="7g4eMx9J1FZ1LIrWjxAy-10" value="run tests" style="rounded=1;whiteSpace=wrap;html=1;" vertex="1" parent="1">
          <mxGeometry x="860" y="130" width="120" height="60" as="geometry" />
        </mxCell>
        <mxCell id="7g4eMx9J1FZ1LIrWjxAy-24" style="edgeStyle=orthogonalEdgeStyle;rounded=0;orthogonalLoop=1;jettySize=auto;html=1;entryX=0;entryY=0.5;entryDx=0;entryDy=0;startArrow=classic;startFill=1;" edge="1" parent="1" source="7g4eMx9J1FZ1LIrWjxAy-18" target="7g4eMx9J1FZ1LIrWjxAy-2">
          <mxGeometry relative="1" as="geometry" />
        </mxCell>
        <mxCell id="7g4eMx9J1FZ1LIrWjxAy-35" style="edgeStyle=orthogonalEdgeStyle;rounded=0;orthogonalLoop=1;jettySize=auto;html=1;entryX=0.5;entryY=0;entryDx=0;entryDy=0;" edge="1" parent="1" source="7g4eMx9J1FZ1LIrWjxAy-18" target="7g4eMx9J1FZ1LIrWjxAy-25">
          <mxGeometry relative="1" as="geometry">
            <Array as="points">
              <mxPoint x="220" y="260" />
              <mxPoint x="220" y="260" />
            </Array>
          </mxGeometry>
        </mxCell>
        <mxCell id="7g4eMx9J1FZ1LIrWjxAy-18" value="" style="rounded=0;whiteSpace=wrap;html=1;" vertex="1" parent="1">
          <mxGeometry x="80" y="90" width="260" height="150" as="geometry" />
        </mxCell>
        <mxCell id="7g4eMx9J1FZ1LIrWjxAy-19" value="" style="sketch=0;points=[[0,0,0],[0.25,0,0],[0.5,0,0],[0.75,0,0],[1,0,0],[0,1,0],[0.25,1,0],[0.5,1,0],[0.75,1,0],[1,1,0],[0,0.25,0],[0,0.5,0],[0,0.75,0],[1,0.25,0],[1,0.5,0],[1,0.75,0]];outlineConnect=0;fontColor=#232F3E;gradientColor=#F78E04;gradientDirection=north;fillColor=#D05C17;strokeColor=#ffffff;dashed=0;verticalLabelPosition=bottom;verticalAlign=top;align=center;html=1;fontSize=12;fontStyle=0;aspect=fixed;shape=mxgraph.aws4.resourceIcon;resIcon=mxgraph.aws4.ecr;" vertex="1" parent="1">
          <mxGeometry x="40" y="40" width="60" height="60" as="geometry" />
        </mxCell>
        <mxCell id="7g4eMx9J1FZ1LIrWjxAy-20" value="Container registry" style="text;html=1;align=center;verticalAlign=middle;resizable=0;points=[];autosize=1;strokeColor=none;fillColor=none;" vertex="1" parent="1">
          <mxGeometry x="90" y="60" width="120" height="30" as="geometry" />
        </mxCell>
        <mxCell id="7g4eMx9J1FZ1LIrWjxAy-21" value="" style="shape=image;html=1;verticalAlign=top;verticalLabelPosition=bottom;labelBackgroundColor=#ffffff;imageAspect=0;aspect=fixed;image=https://cdn1.iconfinder.com/data/icons/ionicons-fill-vol-2/512/logo-docker-128.png" vertex="1" parent="1">
          <mxGeometry x="143" y="106" width="54" height="54" as="geometry" />
        </mxCell>
        <mxCell id="7g4eMx9J1FZ1LIrWjxAy-22" value="" style="shape=image;html=1;verticalAlign=top;verticalLabelPosition=bottom;labelBackgroundColor=#ffffff;imageAspect=0;aspect=fixed;image=https://cdn1.iconfinder.com/data/icons/ionicons-fill-vol-2/512/logo-docker-128.png" vertex="1" parent="1">
          <mxGeometry x="166" y="160" width="54" height="54" as="geometry" />
        </mxCell>
        <mxCell id="7g4eMx9J1FZ1LIrWjxAy-23" value="" style="shape=image;html=1;verticalAlign=top;verticalLabelPosition=bottom;labelBackgroundColor=#ffffff;imageAspect=0;aspect=fixed;image=https://cdn1.iconfinder.com/data/icons/ionicons-fill-vol-2/512/logo-docker-128.png" vertex="1" parent="1">
          <mxGeometry x="223" y="126" width="54" height="54" as="geometry" />
        </mxCell>
        <mxCell id="7g4eMx9J1FZ1LIrWjxAy-25" value="" style="rounded=0;whiteSpace=wrap;html=1;" vertex="1" parent="1">
          <mxGeometry x="80" y="326" width="280" height="194" as="geometry" />
        </mxCell>
        <mxCell id="7g4eMx9J1FZ1LIrWjxAy-26" value="" style="shape=image;html=1;verticalAlign=top;verticalLabelPosition=bottom;labelBackgroundColor=#ffffff;imageAspect=0;aspect=fixed;image=https://cdn4.iconfinder.com/data/icons/socialcones/508/Gitlab-128.png" vertex="1" parent="1">
          <mxGeometry x="40" y="266" width="70" height="70" as="geometry" />
        </mxCell>
        <mxCell id="7g4eMx9J1FZ1LIrWjxAy-27" value="GitLab runner" style="text;html=1;align=left;verticalAlign=middle;resizable=0;points=[];autosize=1;strokeColor=none;fillColor=none;" vertex="1" parent="1">
          <mxGeometry x="110" y="296" width="100" height="30" as="geometry" />
        </mxCell>
        <mxCell id="7g4eMx9J1FZ1LIrWjxAy-29" value="Runner base image" style="text;html=1;align=left;verticalAlign=middle;resizable=0;points=[];autosize=1;strokeColor=none;fillColor=none;" vertex="1" parent="1">
          <mxGeometry x="133.33" y="330" width="130" height="30" as="geometry" />
        </mxCell>
        <mxCell id="7g4eMx9J1FZ1LIrWjxAy-30" value="" style="rounded=0;whiteSpace=wrap;html=1;" vertex="1" parent="1">
          <mxGeometry x="110" y="360" width="220" height="140" as="geometry" />
        </mxCell>
        <mxCell id="7g4eMx9J1FZ1LIrWjxAy-31" value="" style="shape=image;verticalLabelPosition=bottom;labelBackgroundColor=default;verticalAlign=top;aspect=fixed;imageAspect=0;image=data:image/png,iVBORw0KGgoAAAANSUhEUgAABLAAAASZCAYAAADLgucxAAAABGdBTUEAALGPC/xhBQAAACBjSFJNAAB6JgAAgIQAAPoAAACA6AAAdTAAAOpgAAA6mAAAF3CculE8AAAABmJLR0QA/wD/AP+gvaeTAACAAElEQVR42uzdd3hc1YH+8ffcO6NRr+4Vd2MbF3rvITGmWHYEJOAGCSTZbPqmbJZd7Sa7abvZX0g2iVMwbiSxAzaQQEKJIbQAptjgJtkY9ybbktVGmpl7fn9QQnGRZZVbvp/n4QFkWRq9c+fq3HfOOdcIAAAgJCYvqi7M95ziVqe1SNYpjnkmkXFUJBlXssXG2riMk288L8fKZMuYfCMbt9YWG2NcTyoyRlmS8iRJVglJuYf5VkWSnPd97O3Pzcjqv+WYg29+DVtnjbx3f6LxbIuM0/T+L2o91bnGep4xKeuZBlc2qbht9jJOQ6sbT/3x44NqZYzlmQYAAFFjiAAAAPhJxZI1+V4qu69NpXpZ4/aQ4xXJmmLJFEtesWSKJL31/7b4zf9+5x8nAhF5kuoktUpqlNQso6Ss6mXUKqs6Ix2UVOvJ1jrWqZOxtUa2Nm3c2ljG1jnGq60zydqHZ05o5IgDAABBQIEFAAA6VcUS66rxjZ6t8WRPx7p9JNPLWPW08nrLmt4y6impl5X6GKmnpBxS6zIpSXVGqvVkao28GivtM8bZJ9ld8uw+x2ifNc5uGe1tPqB9D31uRAuxAQCArkaBBQAA2u3WuSvjNfm5/WzGHWhkBlmr/jIaYGQGWdn+kh0omd6MOUKlVtIeSfsk7bXG7nY87bPG7JbVdkfeVk92x7JZJ+8nKgAA0FEYTAIAgCOquLO6ZyZLw6znnWSk/lZmkIwGyqq/pIGS+jCewBE0S9oqq+1ytN1KWx1PO+Roe8ZktqZN7vY/3jj4IDEBAIC2YMAJAECEVVZaZ/WIdQNtxhkmmWGyZpgcDbNWw4w0TFIhKaETNUnaIqNtsnpdRpuMZzcZ2U31pmUTe3QBAIC3UWABABByFUus66VeH2q9zEhPGi6rYdI7BdUQSVmkBH+yu2WcTZLdKGveLLiMNrmt2rT05hH7yAcAgOigwAIAICQqlqzJSicTIyV7sjUaI6uTjezJkkZJSpAQQuaQlTYZa6uNtM5znLWul1nfVOduYKN5AADChwILAICAqViyJstryhrhORpjrDfWGjNGRkNlNU4UVYAk7bLSGiOttUZrjLVrMym76v5bRtcTDQAAwUSBBQCAj129YP2QuDUTrdFEWTPRGJ1ipZP4HQ4cNytpi2TXWzlrHOOtz1jzqtec/+oDt/VrIh4AAPyNwS8AAD5w8YoVsbItA0Z5rneaPDNGRmMlnSWpJ+kAnW6XpBeNtS9mjPOia1Ir750xZhexAADgHxRYAAB0sYolm4oyTZkJ1tFEWU20RhONNFZspg74yS4Z84qst8oa52XjpV+ZsHn0xspK4xENAABdjwILAIBOdOvclfGavIKJ1tOZknOmZM/Um5uq8zsYCJ4GI7vaM3rFyKx0Mub5U94Yvo5SCwCAzsfgGQCADnTNb9b3Myn3NMfa8+SY82XtqZJySAYIrQYZs0rWvihjX3Qc89Q9N458nVgAAOhYFFgAALRTxZJNRelk+hQZ5zxZe77YswrAm96zp1bazXrqjzcOPkgsAAC0HwUWAABtNH1x1VAvbS+QMRdK5nzJjiQVAG2QkbRO0vOS/Ztknlo2c+Q6YgEAoO0osAAAOILpi6uGZjxdLmvPNzIXSDqJVAB0kENWet4Y86is93QsO/380uvGthILAACHR4EFAICkiiXWTTVtmijXO99YnSfpUkllJAOgiwbljdaYV+TZpxzpUScn5+ml1w1sJhkAAN75XQkAQPTcOndlfF9OwVnWOJcZz15gjM62Uh7JAPCJFkkvGJknjbynmhznqYduGnGIWAAAUUWBBQCIjPIFG8cZ2cut7GWSLpaUTyoAAiIj6SUj86jneI8Vp7KevmvOkCSxAACiggILABBaFfM290m76QveLK00WdJAUgEQEs1Wetqx9mkj89T+QTsef/ySS9LEAgAIKwosAEBoVCxZk+81x8/2pMvl6HJZncrvOgARUW+l54wxj9qMeXT57OEvEgkAIEwY1AMAAquy0jqrh1edpoymyJiPWOl0SS7JAIDeMLKPWenRWNp5bOnNI/YRCQAgyCiwAACBcsWCVXk5yr3Ulb3KSlMk9ScVADgqT0Yvy9OjMvYPy2aMfFrGWGIBAAQJBRYAwPemL64amvF0tayuMtKFkrJIBQDabZ+kx2XsH2KJ2H1LrxtWRyQAAL+jwAIA+M7seZuz653U+Z50uYyulTSaVACgU2RkzN8kPcDeWQAAP6PAAgD4wjV3v97byaSvNVZXS7pUUi6pAECX22SlB12ZPxZkYk/cNWdIkkgAAH5AgQUA6DbTFq8d7HmxqW8tDbxYUoxUAMA3miU9JmOXstQQANDdKLAAAF3q7f2sjEyFrD2X30UAEAgZGfM3K7vUUXrJvTPG7CISAEBX4qIBANDppt9VPdYar8Iac52kk0kEAALNkzHPSnrAcZx777lxWDWRAAA6GwUWAKDDXbxiRax4R7+LjOeUS3aqpP6kAgChvaJ4UVbLPMcsu++mEWsJBADQOb9uAADoAJWV1nl5WNV5RrrBWFMhqSepAEDkbDAy9xqb+e09s0avJg4AQEehwAIAnJB3LQ+cIWkoiQAA3rLWWLs07djf3D9j9AbiAACcCAosAMBxu3ZR9Rg3411njblB0igSAQAcw1pj7VLPOguXzx6xiTgAAMeLAgsA0CbX3rlxoIl70966e+B5JAIAaOcVyItWWhhPx3+3dM6Q3QQCAGjbrw8AAI7gmrtf7+1k0jcYTzfI6Cx+bwAAOlBGRo9J+q1Nx5ctnzOklkgAAEfChQgA4D0m31GdSJTYqxyrWVaaLClGKgCATtZiZB6yVnf1TNY9+IvbTk8RCQDg3SiwAACS3tyM3TN2hoxuFncQBAB0n4NGWmplFy6bOeop4gAASBRYABBp0xau7espdp2RZstqIokAAHxmrYxZEEvH5rNfFgBEGwUWAETM5DuqE1nFusKRnSGpXCwRBAD4X8ZKK4yxC9NNBb9/4LZ+TUQCANFCgQUAETFtUfXZ1trZsrpeUjGJAAAC6oA19rfyNH/5rFHPEwcARAMFFgCE2NR5m4sVa73JWOdWyZ5CIgCAkFlnZH+dimn+Ax8fVUMcABBeFFgAEEJT79p4muN4t0q60Up5JAIACLlWSfc5Vr+4Z+aIx2SMJRIACBcKLAAIicmLqgsT1t5gpE+zITsAILKsquWYX8dSunPpzSP2EQgAhAMFFgAE3Nuzraz0cUn5JAIAgCRmZQFAqFBgAUAAXfPr9QVOlvMxWX3KSJNIBACAo172VMnoTmZlAUCAz+REAADBUb5g4zgj7x/F3lYAALRHi5XucTzNvXf2yL8SBwAEBwUWAPhcZaV1Xh1Sfaln9HlJUzh3AwDQITZYo59lmvJ/+cBt/ZqIAwD8jYsgAPCptzZln+NYfd5KQ0gEAIBOUSdpvnHTP7z3xjFbiAMA/IkCCwB8pnz+upEy7j8Y6RaWCQIA0GU8SQ86Vj9i03cA8B8KLADwAZYJAgDgKywvBACf4QIJALoRywQBAPA1lhcCgE9QYAFAN5g6b91JxnW/yDJBAAACIW2k+zLG+eF9M4Y/QxwA0PUosACgC5Uv3DDBWn3ZyHxMUoxEAAAI3BXUi5K9I5YYuXjpdSZDIADQVadfAECnK1+w4XzJfE3sbwUAQFhsskY/jidyfrH0uoHNxAEAnYuLKADoJLfOXRnfl1M0VbL/JOkMEgEAIJT2Gmt/ZuX9eNmsk/cTBwB0DgosAOhgFUvW5Kda4rfI6ktGGkQiAABE4sKqUdJi47r/fc+Nw6pJBAA6/DwLAOgI5Qs29jI28xlrzD9KKiURAAAiyZP0oCd9+76ZI58jDgDoGBRYAHCCpi1eO1iZ2NesdLOkBIkAAABJstKjrtX37pk18lHSAIATQ4EFAO109YL1Q2JyviDpNlFcAQCAI7DSy0bmO8tmDP+9jLEkAgDHjwILAI7T1LuqhzmO/epbM65iJAIAANpotYz9n1hi5OKl15kMcQBA21FgAUAblS/YOM4q81Uj83FJLokAAIB2WiNjv39wwM67H7/kkjRxAMCxUWABwDGUL9wwQdZ8U9JHOW8CAIAO9Lo1+l7tgB13UmQBwNFxIQYAR3Dtwo3nOtb7hqQpnC8BAEAnesMa/b/idHzuXXOGJIkDAD6ICzIAeJ9pd60/zzruf0j2UtIAAABdxUpbZewPitNZv6LIAoD3osACgLdcu2jdKY7n3i6pgjQAAEA32m6N/rvloPn5Q58b0UIcAECBBQAqX1B1sqR/F3tcAQAAX7FbrDH/xR5ZAMCFGoAIm7Z47WBlYv9spVvEXQUBAIB/rZex35mwaeSiykrjEQeAKKLAAhA50xZVD7Ce/SdJt0lKkAgAAAiI1yTzH8tmDP+9jLHEASBKKLAARMbVd2/oEUuZr8jo85KySQQAAAT0Iu65jMx/3jdzxAOkASBC5z4ACLeKX60pzcRjn7PGfFFSIYkAAIBwXM2Zp630L8tnjHicMACE/pRHBADCqmLJtpx0S/JzsvbrkopJBAAAhJGVHlRG31w+Z+QrpAEgrCiwAIROZaV1Vg3dON3Ifs9KQ0gEAABEgJX0+7S8rz0wc/Rm4gAQNhRYAEJl+vyqyzNG3zfSJNIAAAAR1Crp5zYT/7flc4bUEgeAsKDAAhAK1y6qHuN49nuSriINAAAAHZAx3y9Kx35015whSeIAEHQUWAACbdqi6gHy7O1WukWSSyIAAAB/Z6WtMvrPiZtG/Kqy0ngkAiCoKLAABFLFkjX5mebYV6wxX5WUQyIAAABHZmVWyuifuGMhgKCiwAIQKLfOXRnfm1s4x1h9S1IvEgEAAGg7Kz3qWu/L98wavZo0AAQJBRaAwCifX3WVpB/KaARpAAAAtFvaSHdaObcvmzl8L3EACAIKLAC+Vz5/3UgZ94eSppAGAABAh2kw1v5Pc53znYc+N6KFOAD4GQUWAN+aOm9zsXFSX5fRFyQlSAQAAKATWFVL+tKyWSP/QBgA/IoCC4DvVFZaZ9Wwqptkzfcl9SYRAACAzmelR13PfOGe2SPWkAYAv6HAAuArU+dvONMx5g4rnUUaAAAAXS4l6WexbPdfl143rI44APgFBRYAX6iYv6F/yug7RuYmzk0AAADdbr81+lY8MeInS68zGeIA0N24SATQrSqWbMtJtyQ/J2v/RVI+iQAAAPiHlV62xn7+vhmjniQNAN2JAgtAtymfX32tjPcjyQwmDQAAAN+ysvqtcc1X771pxHbiANAdKLAAdLmK+Rv6px3z/2T1UdIAAAAIjCZj7Q/cnPR/Lb1ubCtxAOhKFFgAusytc1fG9+YWfsZYfVssFwQAAAiq1cbzPnPv7NFPEwWArkKBBaBLTLur6kLr6KeSxpIGAABA4Fkruyiedr689OYR+4gDQGejwALQqSp+taY0kxX/jpU+yTkHAAAgdA5ao3+fuGnEjysrjUccADoLF5MAOkVlpXVWDau6Sdb8UFIZiQAAAISXlVnpKvPpe2aOXkkaADoDBRaADjd1XtVE4+hnMjqbNAAAACIjLemnScfc/tBNIw4RB4CORIEFoMNMXlRdmJPRf1pjPy3JJREAAIBI2m6s+eK9s0b8nigAdBQKLAAdonx+1VUy+pmkAaQBAAAAKz0Yl/vppTOHbSUNACeKAgvACZmyeEtJItPyXSvdShoAAAB4nyYZ8x+xxPD/XnqdyRAHgPaiwALQbuULqisk+3+SepIGAAAAjnzhaZ/JOM4n77tpxFrSANC+8wgAHKdrfrO+Xyzl/p+VnUoaAAAAaKOUrH4Yy0n969LrxrYSB4DjQYEFoO2sNVMXVX/SWP1AUiGBAAAAoB2Xoa9a631i+axRz5MFgDafOYgAQFtMvat6mHG8X0rmEtIAAADACfKM9Cs3O/XlpdeNbSAOAMdCgQXgqC5esSJWsn3Al2VtpaRsEgEAAEAHXpButka3LZsx8hHSAHCM8wUAHN70+dWTPGPnSZpAGgAAAOgk1sje6WWyvrJ8zpBa4gBwOBRYAD7g4hUrYqVb+3/DGt0uKU4iAAAA6HRWO63sJ5bPGvUQYQB4PwosAO9RvqDqZEnzJZ1BGgAAAOgGS1vdxG1/vHHwQaIA8DYKLABv+vsdBv9XUi6BAAAAoBsHp1ske/OymaP/QhYAJAosAJKuXrB+SEzOnZIuJg0AAAD4hDXSLxvU/KWHZ05oJA4g2iiwgEgPCd6ZdfU/kvIJBAAAAD70uvE0597ZI/9KFEB0UWABETVt4dq+1sZ+KWkKaQAAAMDnPEk/Sdaarz70uREtxAFEDwUWEEHlC6orJPtzSaWkAQAAgABZYz1n1vLZw18kCiBaKLCACClfsLGXrPdLGV1DGgAAAAiolLH61oFBO77z+CWXpIkDiAYKLCAiyhdu/Iisd5ek3qQBAACAEHg+Y5wb758xfCNRAOFHgQWE3OQ7qhPZRfbfZfRPkhwSAQAAQIjUW6OvLJ8x8hdEAYQbBRYQYuULqk6W0d2ymkgaAAAACPGF7T1ua+rWpZ8Ye4A0gNC+zgGEUfnCDTONNT+1Uh5pAAAAIAK2GU833Tt75F+JAggfCiwgZK6+e0OPWMr8mo3aAQAAEEGepJ/0bD70lV/cdnqKOIDwoMACQmTqog2XGc/Ml9SfNAAAABBhL2SM83E2eAfCgwILCIFb566M12QXfNMac7vYqB0AAACQ2OAdCBUKLCDgps/bMDrjmruNNIk0AAAAgPex+k0sx/300uuG1REGEFwUWECAsVE7AAAA0CZvGMd87N6bRvyNKIBgosACAmj2vM3ZdW7qe5I+RxoAAABAm6SNtf85fvPI/6isNB5xAMFCgQUEzDUL149yrbNE0njSAAAAAI77IvgBtzU1e+knxh4gDSBQr10AQVG+sPpGWftzSfmkAQAAALTbNs84N9w3Y/gzRAEEAwUWEAAsGQQAAAA6XFrG/Muym4Z/X8ZY4gD8jQIL8Lny+etGyrhLJE0gDQAAAKCDWd0fS6XmsKQQ8DcKLMDHyhdUTZN0p6Qi0gAAAAA6h5W2GmtuWDZrxLOkAfgTBRbgQ5PvqE5kF9vviyWDAAAAQFdhSSHgYxRYgM9Mvat6mHHt72U1kTQAAACALr9KXmbT8ZuXzxlSSxiAn16aAHxj+oINV3oyiySVkAYAAADQbTY51pt2z6zRq4kC8AeHCAAfsNaUL6z+mifzgCivAAAAgO42zDPOc1MXVM0mCsAfmIEFdLNrfr2+wI07d0maRhoAAACA7y6af9Gj+dBnf3Hb6SnSALr1tQigu1yzcP0o1zr3ShpDGgAAAIBvPRXLxCuWzhmymyiA7kGBBXSTaQurr7HWLpBURBoAAACA7+2QNRXLZo14liiArkeBBXSxiiXWzTRX3W6N+VdegwAAAECgtFijry2fMfJHRAF0LS6egS5UPn9dmYz7G0kfIg0AAAAgmKzswnh27m1LrxvYTBpA16DAArrI1HlVEx1X91ppCGkAAAAAwWall5XJTFs+5+Q3SAPofA4RAJ1v6vzqm4yrZymvAAAAgHAw0iTjus9Pm7/xEtIAOh8FFtCZrDXT5m+oNMYukJRNIAAAAECo9LTGe6R8YfXXiALoXCwhBDpJxZI1+Zlk1kIrO5U0AAAAgNBfXP+iR/Ohz/7ittNTpAF0ymsMQEebtqh6gPXsfZJOJQ0AAAAgMp6Kpc20pTeP2EcUQMeiwAI62LS71p9nHeceSb1JAwAAAIicTY5nrr1n9og1RAF0HPbAAjrQ1AXVt1jH+YsorwAAAICoGuY59tlpC6uvIQqg4zADC+gAFUusm26u/k8ZsXkjAAAAAEnKyJhvLpsx4ntEAZw4CizgBF3z6/UFsbiz2EpXkwYAAACAd7PS3cWZ+C13zRmSJA2g/SiwgBMw9a7qYcax90saQxoAAAAADn/hbZ9Jx+LT7v/40D2kAbT3dQSgXabN33iJNd7vJZWSBgAAAIBjeMOx3rX3zBq9miiA48cm7kA7TFtQPcMa70+ivAIAAADQNid5xnlq6vwNk4kCOH4UWMBxmrqw6vNWdr6kLNIAAAAAcBwKjDEPTJtf/RmiAI4PSwiBNrp4xYpYyfb+P5HVbaQBAAAA4ATdMeH1EV+srDQeUQDHRoEFtEHFkjX5qWT8d0a6kjQAAAAAdNAF+T1uds6MpdcNbCYN4JivFwBHc81v1vdzUs4fjDSJNAAAAAB0sGdjaXPt0ptH7CMK4MgosICjuHbRulMcz/2jpIGkAQAAAKCTbJLNXLls1slVRAEcHpu4A0cwfX7V5Y7nPinKKwAAAACda5iM+0z5gg3nEwVweBRYwGGUL6ya4xk9KKmINAAAAAB0gTLJPDJt/obriQL4IAos4N2sNeULqr4tqzslxQkEAAAAQBfKtsbcPXVh1eeJAngv9sAC3nLxihWxkq39fyGjOaQBAAAAoDtZ6f9NfH3ElysrjUcaAAUWIEmafEd1IqfYLrbSdNIAAAAA4AdWurtX86HZv7jt9BRpIOoosBB5U+dtLjZu6n5JF5AGAAAAAF+xeiyT9srvv2V0PWEgyiiwEGkV8zb3ScdSD8lqImkAAAAA8KkXYmkzZenNI/YRBaKKAguRdfWC9UPich620nDSAAAAAOBz62JyP7J05rCtRIEo4i6EiKRrF607JWadpyivAAAAAATEyWmbefbaRetOIQpEEQUWImfqwuqLHc99Ukb9SAMAAABAYBj1czz3iWsXbjyXMBA1FFiIlPL51dcaax+SVEQaAAAAAAKoxLXew1Pnb5hMFIgSCixExtQFVbNl7O8lZZMGAAAAgKCyUp4x5v7yhVVzSANRQYGFSChfUPVNI82TFCMNAAAAACEQk9Wvpi6s+jxRIAoosBB65Qs2fEfSt0kCAAAAQNiu6Y3V/5s2f0MlUSDsDBEgtKw1UxdW/9BIXyAMAAAAAOG+/tF/L5s54qsyxhIGwogCC6FUWWmdVUM2zpWxnyANAAAAABG5wp87YdOIz1RWGo8wEL7DGwiZiiXWTbdU/1pWs0gDAAAAQMQsPjhwx+zHL7kkTRQIEwoshErFkjVZmWT8bitNJw0AAAAAkWTtkp7J+pt+cdvpKcJAWFBgITQm31GdyC72fieZa0kDAAAAQMT9sSgT/+hdc4YkiQJhQIGFULhiwaq8XOUsN9LlpAEAAAAAkqTHY9mpq5deN7aBKBB0FFgIvIolm4oyyfSDVuZc0gAAAACA93gq6ZgpD9004hBRIMgosBBoUxZvKcnKtPxJ0pmkAQAAAACHvfJ/UV7mw8tmnbyfMBDcwxgIqPIFG3tJ9lHJnkIaAAAAAHBUqyTnimUzh+8lCgSRQwQIooo7q3tSXgEAAABAm02QvCcq5m3uQxQIImZgIXAq7qzumY7pMcorAAAAADhu62OZ+CVL5wzZTRQIEgosBArlFQAAAACcMEosBA5LCBEYUxZvKUnH7UOUVwAAAABwQkan3dRfWE6IIGEGFgJhyuItJVleyyOyOo00AAAAAKBDrE7H7GUPfHxUDVHA75iBBd+jvAIAAACATjE+ljaPXn33hh5EAb9jBhZ8beq8zcVy048Y2dNJAwAAAAA6xap0zF7OTCz4GQUWfIvyCgAAAAC6zCrZzGXLZp28nyjgRywhhC9RXgEAAABAl5ogx320fP66MqKAH1FgwXemzttcbNzUY5RXAAAAANCFrCbKuA9X/GpNKWHAbyiw4CtXz92Za9zU/ZJOJQ0AAAAA6HKnphPxx6bO21xMFPATCiz4RsWSNVluTsO9ki4gDQAAAADoJlYTHbf1j1csWJVHGPALCiz4wq1zV8bTyfg9RvowaQAAAABA97Iy5+YqZ/nkO6oTpAE/oMBCt6tYYt19OYULJF1FGgAAAADgD0a6PKdYv714xYoYaaC7UWChe1lr0smNP5N0A2EAAAAAgM8u2WSnlmzvN6+y0tIfoFtxAKJbTV248QeS/SRJAAAAAIBPWXPTqqHVv5S1hjDQXSiw0G3KF1R928h+mSQAAAAAwPduLl9Q/b/EgO5CgYVuMW1B9RckfZMkAAAAACAgjD4/bX7V7QSB7jn8gC42bX71Z6yx/0cSAAAAABBAVl9dNmvkDwgCXYkCC12qfOGGmbJmnpj9BwAAAABBZSV727KZo35JFOgqFFjoMtcuqL7akb1XErdgBQAAAIBg84y1H7931qjfEQW6AgUWusS1C6rOcqXHrJRHGgAAAAAQCilH5up7Zo74M1Ggs1FgodNdu6h6jOPZJyWVkgYAAAAAhEq99ZxLls8e/iJRoDNRYKFTVczf0D9t9LRkBpMGAAAAAITSPtnM+ctmnVxFFOgsbKSNTlOxZFNR2pgHKa8AAAAAINR6yrgPVczb3Ico0FkosNApKpZsy0knM3+QNJ40AAAAACD0hqbd9MNT520uJgp0BgosdLiKJdZNtzQvlnQ+aQAAAABAVNhTjJtaNvmO6gRZoKNRYKGDz1fWZJJVc2VVThgAAAAAEDkX5xTrtxVLrEsU6EgUWOhQ5Qur/svK3EISAAAAABBNVnZqJln9Y5JAR6LAQoeZNr/6M5L5OkkAAAAAQLRZ6dPTFm74Z5JARzFEgI4wdWH1dcba34hSFAAAAADwJitrPrFs1og7iQInigILJ2zaog1nWM88LimXNAAAAAAA75KR1dRls0b+gShwIiiwcEKuXrB+SEzO3yT1Ig0AAAAAwGHUy9gLls0YtYoo0F4s90K7VfxqTWlMzkOivAIAAAAAHFmBPPPgtEXVA4gC7UWBhXa5de7KeDoeXyJpFGkAAAAAAI7KqJ/n2fsrlqzJJwy0BwUWjp+1Zl9O0a9kdBlhAAAAAADawkiTUsn47y5esSJGGjheFFg4btMWVP2bZGeSBAAAAADgeBjpytJt/f+PJNCOYwdou/IFG26QzN0cOwAAAACAE/D5ZTNH3kEMaCtKCLTZtQs3XOBY84ikBGkAAAAAAE6AZ42dvnzGqOVEgbagwEKbTL2rephx7LOSepIGAAAAAKADNHvSJffNHPkcUeBYKLBwTOXz15VJ7rMyGkEaAAAAAIAOtMu46XPuvXHMFqLA0bCJO46qYsmaLDmx+yivAAAAAACdoK/NxB+YvKi6kChwNBRYOKp0MusnsvY8kgAAAAAAdA57SsKzSyqWWJcscCQUWDiiaQuqvyDZT5IEAAAAAKAzGenD6WTVt0kCRzlGgA8qX1j1IVk9KClGGgAAAACALmHMTctmjFhMEPjAoUEEeL+rF6wfEpPzvKQepAEAAAAA6EJJa+1Fy2eNep4o8G4UWHiPa369vsCNO89KGksaAAAAAIBusCtm7RlLZ43aQRR4G3tg4R2VldZx487dorwCAAAAAHSfvmnH3FexZFsOUeBtFFh4x6oh1d+TdBVJAAAAAAC6ldVpqWTTXILA2yiwIEmatqB6hoy+QhIAAAAAAD8wMjPKF1ZxnYq3jgdE3tS7Np5mHO9JSUzPBAAAAAD4iSera5fNGvkHoog2CqyIm7ZwbV9rYy9I6k8aAAAAAAAfqnc8c849s0esIYroYglhhE2+ozphbWy5KK8AAAAAAP5V4Dm6d+q8zcVEEV0UWBGWU2zvkHQmSQAAAAAA/M2ONG5qYWWlpceIKJ74iJq2oHqGlW4lCQAAAABAQFy1ekj1N4khmtgDK4LKF26YIGueFZu2AwAAAACCxbPWXrV81qiHiCJaKLAiZsriLSVZmZaVkoaSBgAAAAAggA46rk6/58aRrxNFdLCEMEIqK62T5bUuFuUVAAAAACC4SryM7r167s5coogOCqwIeWVYdaWsnUwSAAAAAICAmxDLrZ9LDNHBEsKIKJ9fdZWM7hOlJQAAAAAgJKzRbctnjPwFSYQfBVYETJ237iTjuisllZEGAAAAACBEWoxjL7j3plEvEEW4MRsn5GbP25xtXPceUV4BAAAAAMInYT1zT8Wd1T2JItwosELukJv6maRTSQIAAAAAEFID0zH9tmKJdYkivCiwQqx8QdWnrDSbJAAAAAAA4WYvzSQ3foscwos9sELq2kXrTnE89zlJOaQBAAAAAIgAa4yZeu+MEfcTRfhQYIVQxZI1+elk/AVJo0kDAAAAABAhB2JyJy2dOWwrUYQLSwhDKJWM/VSUVwAAAACA6ClNK7Po4hUrYkQRLhRYITN1QfUtRmYGSQAAAAAAIuqC0m39/40YwoUlhCEy/a7qsZ5jn5eUSxoAAAAAgAjzZPSRZTNGPkIU4UCBFRKz523OrnNTz0kaTxoAAADHlhN3lJ/lKD/hKj/LVX7CefPfb30s5hglYm8Ol+OOUSL25uKFuGuUcI32NqZU3+JJkpJpT+mMfeu/rTLem//dnPKUTHuqb/XU0JJRQ0tG9a3eO38OAOhUezNxb9L9Hxu9kyiCjzWhIVHnpv5PlFcAAAAykopzYuqRF1NZbkw9cmPqmR9XWe6b/98zP6aibFeu6b73cpNpTw0tnupbMmpozag2mVFNY1r7G9Pa15hSTVNaNY1p1bdkeEIBoP16uSlnccUSe/nS6wwn1ICjwAqBafM3XG+lm0kCAABESdw16l+Ypf5FWRpYlKUBb/3TrzCumOPvhQbZMUfZMUc98o4+HG9J2zcLrbeKre11rdpW16odda3a15jmIACAY7s401z9z5K+RRTBxhLCgLtm4cbhrvVelFRIGgAAIKxKc2MaUZatYWUJDS5JaGBRlnrlx+VEeDTbnPK041CrttW2antd6zvl1p76lFigCADv4VnHXrH8plGPEUVwUWAF2OQ7qhOJYvuskSaRBgAACIvcuKPBJQkNK01oWFm2RvfKVu/8OMG0UVPK09aDLdp0oEWb9rdo3d5m7WlIEQyAqNsTy8QnLp0zZDdRBBMFVoBNW1D1Uyt9miQAAECQlebGdEqfHI3rnasxvXPUt4CyqqMdaEqren9SG2taVF2TVFVNUsm0RzAAosWYhyZsGn5VZaXhBBjEp48Igql8fvW1MnY5SQAAgKApynY1tneOTu6Vo9E9czS0LMGgtItlrNUbB1q1eneTVu1q0rq9zUplWHgIIAKsvrps1sgfEETwMFYIoPIFG3tJ3mpJvUkDAAD4nWuMRvfK1ukD8nRq/zwNLMoiFJ9JZaw27Evq1T1NenV3s6prksp4FFoAwnnKM449796bRr1AFMFCgRU01pryhdUPSJpCGAAAwK/yshxN7JenMwbk6dR+ucpPuIQSIMm0p1U7m7RyR6NWbm9UXZK7zwMIlXXp5vzTH7itXxNRBAcFVsCUL6j6nKQfkQQAAPCbHnkxnT0oX2cMyNOYXjlyHYaaYWCttKEmqZXbG/TCtkZtq2slFAAhYP5v2cwRnyWHAD1jRBAc1y6qHuN4dqWkHNIAAAB+UJBwde7gfF0wpEAn98yRYXQZervrU3phe6Ne2NagtXubxUpDAAFlZXXNslkj/0AUwcAQIyAm31GdyC6xf5PVRNIAAADdKcs1mtA3VxcNLdSZA/MUY6ZVZB1oTuvZLQ16ZkuD1u9tFl0WgIDZl4nFTrn/40P3EIX/xYggGLKL7LcprwAAQHcxRprQN1eXDivUGQPylYhRWkEqzYlpyuhiTRldrB2HWvXk5no9ubleu+pThAMgCHq6mcw8WTtFxtDB+30sQgT+N+2uqguto79IYvdTAADQpUpyYrp0WKEuH1Go3vlxAkGbVNck9eTmej31Rr1q2QAegM8Zq0/dO2vkXJLw+fNEBP42dd7mYrmpVUYaRBoAAKBLBohGOqVPrq4YUaSzBuaxGTvazbPSa7ub9HB1nf62tYH9sgD4VZOTsafdM2fUeqLw8fiECPytfEHVbyTdQBIAAKCzFSZcXTGySJcPL1QvZluhg+2uT+mR6jr9ZdMh1TErC4D/vBTLTp2z9Lqx3GrVpyiwfKx8/oZZMuYukgAAAJ2pT0FcU0YX6/LhRexthU6X9qye39aoh6vr9OquJjZ+B+AbRuY7984c8c8k4dfnB740dd66k4zrrpJUSBoAAKAzjOmVo2vGlOiMAXkyjArRDXYcatWD6+v0l011aklTZQHodhnj6dJ7Z4/8K1H4D0MVP7LWlC/c+KhkLyUMAADQoYM/I53eP0/TxpVqVM9sAoEvNKU8rdh0SMteO6gDzWkCAdCd3sikvPH33zK6nih8NoYhAv+ZunDDZ401PyYJAADQUVxjdNHQAlWML+VugvCtVMZqxaZDun9drXYeYhsaAN3m58tmjvw0MfgLBZbPXL1g/ZCYnNWS8kkDAACc8GDPSOcMytfHJ5apX2EWgSAQrJVe3NGoP6yv1epdTQQCoMtPQzLOlctmDP8TUfhoTEME/lFZaZ1VQ6v/Iuki0gAAACfCMdKFQwpVMb5UfQuYcYXgWre3Wb9ZtV+v7W4mDABdaYfNxMctnzOklij8IUYE/rF66MbPifIKAACcAGOkC4cUqOKUUmZcIRRO7pWj//jQAL22+80ia91eiiwAXaK/cdPfl3QrUfhkjEME/jB9cdVQL6NVYukgAABop1P65Gr2aT00pDRBGAit9XubteiV/Vq7hyILQOez1l65fNaoh0ii+1Fg+cBbSwcfl3QBaQAAgOPVvzBLH5tYpnMH8z4YomP1riYtfHm/Nu1PEgaAzmO1szWWGPfHGwcfJIzuxRJCH1g1rPpLspRXAADg+BRmu7phQpk+NKJQruF9SUTL+L65+n7fXD23tUELX6rRrvoUoQDoeEb9stIt/yPpZsLo7qcC3eqahetHudZ5WVIOaQAAgLaIu0ZXjS7W9FNKlRt3CASRl/asHlxfq6WvHlBjq0cgADqcNbZ8+YxRy0mi+1BgdaO3lg4+Iel80gAAAG0xrk+Objuzl/oXsUE78H4NLRktWX1AD22oU8ZaAgHQkXbFWlPjln5i7AGi6B4sIexGq4Zu/KoorwAAQBuU5MQ089QeumhoAWEAR5CfcHXzGT314VFFmv9ijVZubyQUAB2lbzor638lzSKK7sEMrG4yfd6G0Z5rXpHEbYIAAMAROUaaPKpYH5tYxnJB4Di9tKNRd71Yo+11rYQBoEN4MtfcN3PEAyTR9SiwuoO1pnxh9V/F7CsAAHAUQ0oT+tRZvTSiRzZhAO2U8az+VFWnxS/vVzLN/lgATtgum4mPWT5nSC1RdC2XCLretKE33iajz5AEAAA4nETMaPZpPfUP5/RWWR47PgAnwjFGI3tk69yTCrS9tlV7GrhbIYATUiA3U7h+2U8eJIquxQysLlYxb3OftJtaK6mENAAAwPuN7JGtfzyvt/oXskk70Bme2dKgXz6/V3XJDGEAaC9PshctmznqKaLoOhRYXax8QdU9kqaRBAAAeLe4a3TDhDJdO6ZEDiM0oFM1tHpa9FKNHqmuE/cqBNBOG5K1ZsJDnxvRQhRdgyWEXWjawqopkr5FEgAA4N2GlSV0+6X9ddagfBnKK6DTZblGpw/I09jeuVq/r1kNreyNBeC49Yhlm9T6ZT9+gii6BkOkLjJ5UXVhtmfXSBpAGgAAQJJcx6jilFJNP6VELs0V0C1a0lbzX9ynP1cxGwvAcWv1HDPpvptGrCWKzse9mLtIjme/K8orAADwlh55MX3rigG6bnwp5RXQjRIxo1vP6qV/vby/SnO5aQKA45LlZOyvKyst3UoXYLTUBa5dUHWWIz0jCkMAACDprIH5+odzeys/i6EB4CeNrZ5++fxe/XVzPWEAaDNj9al7Z42cSxKdnDMRdK6KJWuy0sn4S5LGkgYAANEWd41mntpDU0YXEwbgY89sadDPn9urhhbuVAigTQ7FrB2zdNaoHUTReXjbr5OlWrK+IcorAAAir39hlr77kYGUV0AAnDs4Xz+cMkin9MklDABtUZg25g5i6FzMwOpE1yxcP8q1ziuSskkDAIDoumhogW47q5eyY7x3CASJtdLvXz2g363eL48d3gEcg7F22r2zRi0jic7BKKrzftsZV84vRHkFAEBkucZoxqk99Pnz+lBeAUG8GDVSxfhSVX5ogEpy2OAdwDFqAGN+PHlRdSFJdA5GUp2kfFHVDFldSBIAAERTQcLV7Zf3U/nYEsIAAm5c7xz98KpBGs+SQgBH1z87Y/+DGDoHSwg7weRF1YXZnl0vqS9pAAAQPYNLEvr6xX3VOz9OGECIZKzV7189qCWr98uypBDAkU4VGZ2+fM7IV4iiYzEDqxPkZPSforwCACCSzh2cr+98ZADlFRBCrjG6fnypvnFxP+UnXAIBcPhTRcz8RNYyYaiDEWgHu3bRulMcz31JEovkAQCI0qDKSB+bUKbpp5QywAIiYE9DSt9/Ypc2H2ghDAAfYKU5y2eOvIskOg4zsDr0CLXG8dy5orwCACBSslyjr17YVx+lvAIio3d+XP/54QE6c2AeYQD4ACN9b8riLWyE2YEosDpQ+YKNcySdQxIAAERHfsLVv13eX2cNyicMIGKyY46+dnE/XT+hjDAAvF+vRLqVDd07EG8SdpApi7eUZGVaNkjqSRoAAERD7/y4/uWyfupfmEUYQMQ9+Ua9fvLMHqUy7O4O4B2etfac5bNGPU8UJ44ZWB0kK9PyX6K8AgAgMoaVZes7kwdSXgGQJF1wUoH+/UMDVJTN5u4A3uEYY35SWWnpXjoiTCI4cVPv2niapE+SBAAA0TChb67+40P9VcyFKoB3Gd0zW9+dPFADiym2AbzjjFeGbpxDDCeOJYQnqLLSOquGVD8to7NJAwCA8Lt8eKFuO7uXXMMwCsDhNaU8fe/xXXp1dxNhAJCk/emYHf3Ax0fVEEX7MQPrBL0yrPoTlFcAAETDR0YW6dPn9Ka8AnBUuXFHt1/WT+cO5uYOACRJZbG0+RYxnBhGXyegfP66Mhl3gyRuOwIAQNh/748t0YxTexAEgDbzrPSL5/bq4eo6wgDgOfLOumfm6JVE0T7MwDoBRrFKUV4BABB6lFcA2nWxZaTbzu6l6ydwyQBAjmedH8taJhK1EzuPtncgu6DqZBn9igwBAAi3j00o08cmcvEJoH2MpHG9c5SfcPXKLvbEAiJ+Qhhw8qsHq9cv+/GrhHH8mIHVbvaHkuLkAABAeC86bz69pyrGlxIGgBM2ZXSxPnduH7kOky+ASLP2e1csWJVHEMePAqsdpi/YcKVkPkISAACEk5F021m9dNXJxYQBoMNcNLRAX7mwj2KUWECU9c81uV8hhvaNz3AcLl6xIlayrf8rksaSBgAA4TTz1B6aOraEIAB0ipd2NOp7T+xSKmMJA4im5pjc0UtnDttKFG3HDKzjVLKt/2dEeQUAQGjdMKGM8gpApzq1f56+eD7LCYEIy0kp/W1iOD6cMY/DlMVbSrIyLdXizoMAAITSVaOLdfMZPQkCQJd4dmuDfvjX3cpYZmIBEWSttWcvnzXqeaJoG2ZgHYesTEulKK8AAAily4YXag7lFYAudM6gfH3pgj5yDfMKgAgyRuZHspYTQBu5RNA21yxcP8qRuZPMAAAIn4uGFuiz5/QR15AAutrA4iz1L8rS81sbxTwsIGKMBpy8ev/69ct+8hphHBszsNrItc7/SIqTBAAA4XLmwDx99tzelFcAus15g/P1D+f24jwERJL5wdVzd+aSw7FRYLXB1EUbLpM0hSQAAAiXYWUJfeF8lu8A6H4XDy3UrWf2Igggega4OQ1fIoZjo8A6hool1jWe878kAQBAuPTKj+ubl/ZXdozhEAB/+PDIIk0fV0oQQMQY6RvX3rlxIEkcHSO2Y0i1VN8i2VNIAgCA8MiNO/rGJX1VnM3WlgD85eOTynTpsEKCACI2NHFj3n8Qw9ExX/4oKpZsy0knm6skDSANAADCwXWMbr+sn8b3YbsJAP6U8ay+8/guvbSjkTCA6PBsRqctnzPyFaI4PGZgHUU62fwlUV4BABAaRtI/nNOL8gqAr7mO0T9d2FejemYTBhAdjnH1LWI4SkBEcHhTFm8pkfRlkgAAIDxumFCmi4eyNAeA/yViRl+/uJ/6FnAjdCBCrpo2f+MlxHB4FFhHkJVJ3i6phCQAAAiHswfl66Pj2RwZQHAUZbu6/bL+KmK/PiAyrPG+K2vZ7ukwKLAOY9ritYMl8xmSAAAgHPoXZemz5/Zm808AgdOnIK6vXdRXMYczGBARZ05bUDWVGD6IAuswvIz7LUkJkgAAIPhy4o6+dlFf5cYZ9gAIptG9cnTzGT0JAogIa8x3Ll6xIkYS78VI7n2uXbTuFCNzI0kAABB8xkhfPL+PBhRlEQaAQPvIyCJdMaKIIIBoGFW6vd9sYngvCqz3D3Q997vkAgBAOFw/vkynD8gjCACh8Mkze2ps7xyCACLAeubfr567k9smvwtFzbtMu6vqQiNdSRIAAATfGQPyVHEKm7YDCA/XMfryhX3VI4+VRUDoGfWL5Tb+I0H8HQXWu1hH3yUFAACCr1d+XJ8/v48Mex4DCJnibFdfu6ivslxOcEDoWfv18vnrygjiTRRYb5k2v/qjks4hCQAAgs01Rl88vw+btgMIrWFl2fr02b0JAgi/Yjnu14jhTYzsJF28YkXMGvttkgAAIPiun1CqUT2zCQJAqF00tECXDiskCCDsrD47bVH1AIKgwJIklWztd6OkUSQBAECwjemVo2nj2PcKQDR84sye3GUVCL8c6+lfiYECSxVLrCvj/DOHAgAAwZaf5egL5/eRw7YwACIiO+boKxeyHxYQfnb29MVVQ6OeQuQLrFRy42zJjuQFAQBAsN12dm/uzAUgcgYVZ2nmqT0IAgi3uJfRN6MeQqQLrFvnrowbWWZfAQAQcFeMLNJ5g/MJAkAkTR5drDMG5BEEEG6zyuevi/Tkm0gXWDXZhTdLGsrrAACA4OqVH9fs05h9ACC6jKR/PK8Ps1CBcHPluJGegBPZAqtiyZosa/R1XgMAAAT7ou0z5/RSdoz70gCItvwsR58/j30AgVCzumn6vA2jo/rjR3a0l2nO+oSkk3gFAAAQXB8aWaTxfXIJAgAkje2do2vGlBAEEF6u55p/ieoPH8kCa/Id1Qlr7Dc49gEACK7S3JhmTGLpIAC828cmlGlAURZBAOF1Q/mCqpOj+INHssDKLra3SRrAcQ8AQHB95uxeysti6SAAvFvcNfqHc3rLsJQQCCtX0r9G8QeP3Khv9rzN2ZK+yjEPAEBwXTqsUKf2545bAHA4o3pma/KoYoIAwuu66fPXj4/aDx25AqvOTX9aUn+OdwAAgqk4x9Xs03sSBAAcxU2TytQrP04QQDg5nuPcHrkfOko/bMWSbTmy9isc6wAABNesU3sqn6WDAHBU2TFHnz2nt1hJCISU1fTyhRsmROlHjtToL5Ns+oyM+nGkAwAQTKN7ZuvCoQUEAQBtMK5Pji4bXkQQQDgZY53KKP3AkSmwJt9RnbDWfIljHACAgA5ajPTJM3sxmwAAjsPs03uoJCdGEEAIWdlrp8+vnhSZsWBUftDsYjuH2VcAAATXFSOLNKQ0QRAAcBxy445mnFpGEEA4mYyJzjZJkSiwKpZY10hf5tgGACCY8hOubpjABRgAtMdFQwt1cq8cggBCyEjXT1+8aUQUftZIFFip5o0fs9JwDm0AAILppkllKky4BAEA7bvA1S1n9JRhDTYQRq7NZCIxCyv8BZa1xhj7NY5pAACCaVhZQh9iE2IAOCFDSxO6dFghQQAhZKVZFfM39A/7zxn6AmvqoqprJY3jkAYAIJhmntqDWQMA0AFumtRDuXGHIIDwSaSM88Ww/5ChHw6WL6h6RtI5HM8AAATPxH65+tfL+hMEulxDS0Z1yYzqWzI61OKpviWjZNpTa8ZKkppaPXnWKjfLkWOMEq5RzDWKO0aJmCPXSDlxR4mYo9JcV8XZMcVdmlh0v/vXHtRdL9YQBBAyRmpMxexJD3x8VGhf4KG+n+r0+VWXe5RXAAAEcyBmpBmTehAEOk1zytPW2lZtOdiibXWt2tuQ0t6GtPY2ptSc8jr8++VlOSrJiako21Vp7pv/LsmJqXd+XH0L4upTEFcOs2PQya4cXaxHqg9px6FWwgBCxEp58ZQ+K6kytGPDMD+B5QuqH5PspRzKAAAEzwUnFeiLF/QhCHSIjGf1+oEWbahJasPeZm3c36K9DSlZnz3O4mxXA4qzNKg4oZNKsnRSSUIDixJKxJi9hY6zcnuj/mvFToIAwudAJuWddP8to+vD+MOFdgbW1PkbzqS8AgAgmFzH6IaJZQSBE7LlYIte3tmkV3Y2aUNNs1rS1vePuTaZUe3uZr22u/nvrwdjNLA4SyN7ZGtkz2yNKMvWgOIsUWmhvU4fkKeRPbJVVZMkDCBcSt0s5zZJ/x3GHy60v/fK51fdJ6NrOH4BAAiej4wq0q1n9iIIHJeMZ7V6d7Oe3dKgl3Y06kBzOrQ/a2G2q3G9czSud67G9cnRgKIsDgAcl9W7mlT56A6CAELH7o5l5w5det3A5rD9ZKGcgXXtouox8uxVHLgAAARPdszRdacw+wpt41lp1a4mPf1GvZ7f3qiGlkwkfu5DyYye2dKgZ7Y0SJJ65MV0Wv88nT4gT+N657LkEMc0vm+uxvXO0Wt7mgkDCBXTJ51sniXp56H7ycL4dJUv3LBQ1tzEgQsAQAB/j48t0YxT2bwdR7e7PqUVmw7pL5sOaX9TmkDeJcs1mtgvV+cNLtDpA/LYGB5HtG5vs7755+0EAYTP6wcH7hj1+CWXhOoXZOhmYFXM39A/bc31HK8AAARP3DW66uRigsBhWSut3NGoP66r1au7m2SJ5LBaM1bPb2vU89saleUando/TxcMKdAZA/IUc5iZhb87uVeOJvbL1Ss7mwgDCJehpVv7TZf0uzD9UKErsDLGfE5SnOMVAIDguXRYoUpyYgSB92hKefrLxkN6cEOtdtenCOQ4tGas/ra1QX/b2qDChKsLhxbosuGFGlycIBxIkj4+sUyrdlIIA2HjGecrClmBFaq3YK5YsCovTzlbJZVyuAIAECyuMfrJ1MHqnc/7UHhTQ6unP66v1R/XHVRDq0cgHWhkj2xddXKxzhmUL5dZWZH33cd36vltjQQBhI69YNnMUU+F5acJ1Vucecq5RZRXAAAE0nkn5VNeQdKbxdX9aw/qwfW1akpRXHWGqpqkfvjkbpXmxjR5VJE+PKJI+QmXYCLq+vFlFFhAKJkvSgpNgRWat1sqllg3nazeIGkYBykAAMEbkPzw6kEsa4q4tGf1l02HdPcr+3UomSGQLpQdc3T58EJNHVeiUpbxRlLlIzu0ejd7YQEh42WMM+r+GcM3huGHCc1vp1RL9VRDeQUAQCCdPiCP8irCrKS/vl6vu1+p0b5G7ijYHZJpT39YX6tHNtbpQ8OLNG1cqYpzmJEVJdeMKabAAsLHcaz3OUmfC8UPE5Znxbw5NQ4AAARQ+Th2AIiqLbUt+pc/b9ePnt5NeeUDLWmrP6yv1WeWv6HfrT6gZJolnFExqX+eBhZlEQQQMka6pXz+urIw/CyhKLCmL1h/uqw9j0MTAIDgGVaW0Oie2QQRMc0pT3e9WKOv/GGb1u1tJhCfSaY9/W7Vfn1m+Rt6uKpOHreoi8JFrq4eU0wQQPjkyol9Igw/SCgKrIzcr3BMAgAQTJNHccEUNat2NenzD2zR/WsPKmNpRvystjmjnz+3V//04FZV1SQJJOQuGlLI0lEgjKz9x4olawI/xTLwZ6dpi9cOlnV+rhAthwQAICryE64+e25vuY4hjAhoTnn69cp9mvfCPu4uGDC1zRk9tumQ6pIZje6ZoyyX12wYuY5RS9rqtT3MigRCpjCTilWtX/7j1UH+IQJf+lgv/jmFaDN6AACi5LJhhVwIR8T6vc36wgNb9HBVnZhzFdBxt5X+tKFOn79/i17eyWbfYfWRkUWcl4EQMsb+U9B/hkAXWNf8en2BrL2FQxEAgCAOpKQPjywiiJCzVvr9qwd0+8M72KQ9JA40p/Xtx3bo58/tZZP3ECrMdnXx0EKCAMJn/NSF1RcH+QcIdIEVi7u3SGLkCwBAAE3ql6c+BXGCCLHa5oz+/dEduvuV/ex1FTJW0sNVdfriA1u1aT97Y4XNh0ZQYAFh5Fj7pUA//uD+1rTGWvsZDkEAAILpylG8BxVmrx9o0Vcf2qrVu1lqFmZ7GlL65z9v1x/X1xJGiAwry9aQ0gRBACFjpSlT76oeFtTHH9gCq3zRpg/LaASHIAAAwdMjL6ZJ/fIIIqQe23hI3/jTNtWwZDASUhmrX7+wT//75G6WFIbIpcOYhQWEkGOM/VRgH3xQH7ixHrOvAAAIqIuGFMqwR3DoeFb61Qv79H/P7lEqw5LBqHnyjXp988/btb+J4jIMLhxSoDibuQPhY3TL1XN35gbxoQeywKpYsGmQla7kyAMAIJguGFJACCGTylj975O79CBLySJt84EWffXBbeyLFQIFCVdnDmCmLBBCJbHchuuD+MADWWClbeYzklyOOwAAgmdoaUKDirMIIkTqWzL610e26+ktDYQBHWxO6/aHd2jl9kbCCLjLhrNXIRBG1uofg/i4A1dgTb6jOiGjORxyAAAEE7dnD5cDTWn985+3a8M+Ztzg75JpT997YpeefqOeMAJsQt9c9ciLEQQQMkaaNHX+hjOD9rgDV2Bll3jXS+rFIQcAQPA4Rjr/JJYPhkVNY1q3P7xdO+paCQMfkPGs/vep3Xps4yHCCOpFrpEuYTN3IJyvb8cEbl/x4C0htOYfONQAAAimCX1zVZzDLgBhsKs+pX/+8zbtqk8RBo7Is9JPn92jh6vqCCOgmDULhJTVDRV3VvcM0kMOVIE1fX71JElncqQBABBMF3EhFAp7GlK6/eHtqmnkbnNoyzWSNPf5vXpyM8sJg6hvQVyDSxIEAYRPIu3a2UF6wIEqsKyxn+MYAwAgmOKu0ZkDuaNV0B1oSqvykR060ER5heMYx1vpjmf26MUdbOweRGcPyicEIIyM/YeKJTYwU+MDU2BNWbylxErXcYQBABBM4/vkKjvmEESAHUpmVPnoDu1pYNkgjl/Gs/rBE7u0fm8zYQTM2YN48wEIJzPYS1Z9OCiPNjCjyKx0yyck5XKAAQAQTMy+CrZk2tO3/rJT29mwHSegNWP13Sd2aS8laKAMLk6ob0GcIIAQ8hSczdwDUWBVVlpHRp/i0AIAIJiMkc4YwBKUoLJW+tFTe7Rpf5IwcMIOJTP6z7/sVFPKI4wAOWcw53AgpCZPX1w1NAgPNBAF1qph1ZdJGspxBQBAMI0oy+bugwF258p9em5bA0Ggw2yra9WPn94jSxSBwT5YQGg5Xlq3BuKBBuFBWmtu4ZgCACC4zhzIhU9Q/bmqTn9cX0sQ6HDPbWvQA2sPEkRADCvLVo+8GEEAYWQ0+9a5K32/Ttj3BVb5/HVlRnYqRxQAAMHF/lfBVFWT1K9f2EcQ6DSLXt6vTftbCCIQ17fS2bwZAYRV75rcosl+f5C+L7Cs494kKcHxBABAMPUtiGtAURZBBExtMqMfPLFLaY9FXug8ac/qf57cxX5YAXFqf96MAMLKetb3K998X2AZqzkcSgAABNdpXPAEbxBrpR8+uUv7m9KEgU63uz6lu1bWEEQAnNwrRzHHEAQQRkZXXvOb9f38/BB9XWBNnb/hTEkTOJIAAAiuU/rmEkLA3LvmgF7b3UwQ6DKPbazT6t1NBOFziZjRyJ7ZBAGEU8xNuTP9/AB9XWA5hs3bAQAIMse8+Y49gmPT/qR+t+oAQaBLWUlz/7ZXrRmWrPrd+D68KQGE+Gz8SVnr22mWvi2wKpZsy7HSdRxAAAAE15DShPKzHIIIiGTa0w+f3M2+V+gWu+pTWrqa8tTvxjOrFgizodPmV1/g1wfn2xFlKtl8vaRijh8AAILrFN6pD5RFL+/XrvoUQaDb3Lf2IMegz43okVBunDcmgLCyjn9Xwvn2zGMklg8CABBw43qzfDAoqmqS+tOGWoJAt0p7Vne/zIbufuYaw9JwINRsxdR5m4v9+Mh8WWCVz183UtJ5HDgAAAT7Imc0FzmBkPas/u/ZPWLlIPzgmS0NWr+Xmwj4GcsIgVDLMW7qBj8+MH/OwHLcT0ji/qwAAATYsDKWmQTF8jUHta22lSDgC1bSwpf3E4SPje/DmxNAuM/D/lxG6LtR5cUrVsRkdROHDAAAwTaW5YOBcKAprXtfO0gQ8JV1e5v16u4mgvCpQcUJ5fAGBRBaRvb0qfOqJvrtcfnurFO6fcCVkvpyyAAAEGzDe2QTQgAseKlGybRHEPCdeyhW/Xtxa6ShpQmCAMLM1c1+e0i+K7Cs7AyOFAAAgm8YFze+V1WT1JOb6wkCvrR6V5M27k8ShF/P8WW8SQGEmZFuuHXuyrifHpOvCqzJi6oLZTWFQwUAgGArTLjqlR8nCJ9b9HKN2LcdfraMWVi+xZsUQOj13Jdd+GE/PSBfFVg51rtOEhtmAAAQcCwf9L+1e5v12m7u9AZ/e25bg2oa0wThQ8PKKLCA0DO60U8Px1cFlrXmRo4QAAC4sEHnu/sV7vIG//Os9JdNhwjCh/oWZikvi43cgZCbWrFkU5FfHoxvzjgVCzYNknQhxwcAAMHH5r7+9uruJq3dw+wrBMOjG+vksdbVd4ykIZzrgbDLTjenp/rlwfimwEopfaN8uKk8AAA4fiPY3NfXlq9hXyEER01jWq/sbCQIHxrOuR4IP+OflXK+KYyMzMc5MgAACL7ibFeluTGC8Kltta16ZWcTQSBQnnidu2X6ERu5A5FwWcX8Df398EB8UWBNn189SdI4jgsAAIJvQHEWIfjYfWsPcudBBM4L2xuVynDk+s2gYgosIAKcjNENvnggfngQGZ/tbA8AANqvXyEFll81tGT05BvMZEHwJNOeXtnFzEG/6VMQlzHkAISdJ38sI+z2Aquy0jpG9gYOCQAAwqFfQZwQfOqvm+uZxYLAenZLAyH4TNw1KmPJOBB6RppUvmBjt6+a6/YC65WTNl4uqT+HBAAA4dC/iBlYfvXYpkOEgMBaub2BuxH6UL8CzvlAFBjZbt+3vNsLLOOwfBAAgFBdzLCE0Jc27W/R5gMtBIHAamj1tGl/kiB8pm8hs26BKPBkb6ystN3aIXXrN7967s5cyZZzKAAAEA4xx6hXPstJ/Ii9rxAGq3ezD5bf9GXZOBAJRhq0aujGC7rzMXRrgRXLaZwiqYBDAQCAcOhdEJfLjr6+9NxW9g9C8L26q5kQfKYvs26ByOjuZYTdvITQVnAIAAAQHv1ZSuJLG/cntachRRAIvHX7mtXKjQh8pQ8zsIDIsNK0i1es6Lap9t1WYF09d2euka7kEAAAIDx65HEh40d/Y/YVQiKVsXqdfbB8pU9+XA4Tb4HIDPWKd/S7qLu+ebcVWPHsxiutlMfzDwBAeBQmXELwoZd3sm8QwuN1bkbgK3HXqDSXvQ+BqDDWdNtKum4rsKw8lg8CABAyFFj+c6glozcOcsGP8KDA8p+ibAosIDKspnfXMsJuKbCunrszV8awfBAAgJApyKbA8pvVu5pk2TIIIbJpPwWW3xRx7geipEfJtr4Xdsc37pYCy81tmCwpn+cdAIBwKUg4hOAzr+3mrm0Il+11rWzk7jMUWEC0GDkf7Y7v2y2jTGP1UZ5yAABCeBHDEkLf2bCPDa8RLhlrtau+lSD8dO6nwAIixUrTKpbYLn/hd3mBNXve5mxx90EAAEKpgALLV1rSVtvruNBH+Ow+lCIEH2H/QyByeqdaNl7Q1d+0ywusQ07rZEmFPN8AAIQPBZa/bNqfVIYNsBBCuxsosPyEGVhA9HTHyrouL7CsDHcfBAAghLJjjuKuIQgf4W5tCKtd9RRYfkKBBUSRN72rlxF2aYE1+Y7qhIym8EQDABA+bODuP9sPsXwQ4bSbAstXirJjhABEjumTaao+ryu/Y5eONLOL9BGxfBAAgFDKZ/mg7+ykwEJIHWxKE4KPMAMLiCjTtSvsuvatUsfj7oMAAIRU3GH5oN/srGOWCsKpriVDCD6SE2cGLhBFVnZaZaXtshNAl32ji1esiMka7j4IAEBIxdj/ylda0lYHm5mlgnBqaMmI+xP4B/sfAhFl1O/lYZvO7qpv12UFVunWgRdIKuUZBgAgpBcwzMDylYPNaXF9j7DyrNTQyiwszv8AuptjM1d32ffqqm9kTdf9UAAAoOvFuIDxldokF/cIt0Mc475hjOTyOwCI6hngmq76Tl23WNmaq3hiAQAIL5YQ+ksdywcRco0pjxB8JIvfAUBUjZm+eNOIrvhGXVJgTb+reqyMRvC8AgAQXiwh8Rc2uUbYpTMskvXV7wAKLCCybMab0hXfp0sKrIzjXcNTCgAAFy/oOq1pLu4RbimPY9xPWEYORJeVumTLqC4psIwM+18BAMDFC7pQK7NTEHIpjnFfYQkhEGX2wimLt5R09nfp9AKrfMHGXpLO4gkFACDcWELos4t7ZqeAYxz8DgDQNWJxr+Ujnf1NOr3AsrJXqys3iwcAAN2Caxd/YX8ghP4Yp8Dy19UrM7CASDNe5y8j7PRiychj+SAAAACAYF3I4Div+wBE/CRw5a1zV8YDe96vWLItx8hczjMJAADQxRf3XE0i7Mc4B7mvMB8OiLyifTn5F3Tqeb8zv3hrMnm5lfJ4HgEAALqW4doeIedykAOAr1g5nboCz+nkL87yQQAAgG5guLhHyDEBCwB8NvaQrunU836nfWVrjaydwlMIAADQDRf3RICQc2mwAMBvhl67qHpM4MY20xdsOEVG/Xj+AAAAuh4TsBB23PTOXyybYAGQ5Fh7Zad97c76wp6cD/PUAQAQoYsXIvDXAJIGCxzjAICuHxBe0Wnn/U582BRYAABECJeSPns+eEIQcg7rZH0lwxQsAG+64Oq5O3M75bzfGV/06rk7c2V0Ps8bAABAN13cU2Ah5LgLob+kMxRYACRJ2bHcpgs7ZWzTGV80K6f+YkkJnjcAAKKDSxd/YXkVwn+Mk4GfePwSAPDOoDDTKcsIO6XA8qy5gmcMAIBo4VrSZ88HTwhCLjvOGkI/SdFgAfj7KKRTtpTqnLO+Yf8rAACihksXf+HSHmGXS4HlK2kKLAB/N+baOzcO9P3YZtqi6gGSRvN8AQAAdB9mYCHsKLD8JUOBBeBdHNd+qMO/Zkd/Qet5k3mqAAAAunngSIOFEHMdwxJCn8l4ZADg76xRh28t1fFnfcP+VwAAAN2N/gphVpLjsu+eny5UJaW4CyGAd49DZK+oWGLdjvyaHVpgVSyxrqwu5akCAADoXtyhDWHWIy9OCD6STHnKWAosAO9RkmquOq1DxzYd+cXSzRvPlFTK8wQAANC9WEKIMOuZGyMEH2lOsX4QwGF08Aq9Di2wjDzuPggAAOCHMSMRIMT6FDADy08aWimwABx2LNKhHZHTwY/uQzxFAAAA3Y8ZWAiz3hRYvtLUmiEEAIdzdsWSTUUdNrbpqC9UsWRNvpU5g+cHAACg+9FfIcyYgeUvTSwhBHB4sUyLd1FHfbEOK7C8ZNZ5kvhNAgAA4AMUWAgzCix/aWQJIYAj8Kwu7Kiv1WEFlpUu4qkBACC6uP+Uv7CEEGFlJJXksIm7nzADC8ARz9nGXtxhY5uOG7R23IMCAADBvKiEfzhEgJCKuYbzjc/UNqcJAcDhWU2cOm9zsW/GNhVL1uRLOp1nBgAAwB+YgIWwijsc3H6zr5ECC8ARucZJnd8RX6hDCiz2vwIAACwh9BcKLIRVlsvB7Tc1FFgAjq5DtpzqkAKL/a8AAAD8hT2wEFYxCizfqWmiwAJwZNaYiztkbNMhD4b9rwAAAHyFa3yEFYe2/+xvShECgKOct+2kjtgH64QLLPa/AgAAANBV6lu4452fHEpm1JJmETmAo3KdWOq8E/0iJ1xgsf8VAACA/7CEEGGVTHtKZShM/ILlgwDaoiO2nnL88CAAAADQsbhRG8KsvjVDCD7BBu4A2sTq4hMe25z4Y2D/KwAAAL9hAhbCrD5JgeUXu+tbCQFAW5xasWRT0Yl8gRMqsNj/CgAAvIMVPb7CEkKE2X6WrfnGzkNs4A6gTVwvmT6hfbBOqMBKNWWdK/a/AgAAErcG89vTwfOBENtSy6wfv9h+iOcCQNtYmRPaguqECizjeOfxFAAAAPiPQwQIsS0HWwjBJ3bUUWABaBtrdWG3jW2szLk8BQAAAP5jmIKFEHuDAssXGloyqmM/MgBtHpxo0ux5m7Pb+9fbXWBVVlrHSGfwDAAAAEnsgeUz3IUQYbbjUEqpDCed7rbpAEUigOOSqHPSk9o9tmnvX3x5+PqxkorIHwAAwH8osBBmGc9q0/4kQXSz1buaCAHAcfLOaffYpr1/0Vj3HIIHAADwJ5YQIuxe2kl50t1WUWABOF6O6foCy7GiwAIAAPApy+oqhNxLOxoJoRvVt2S0mb3IABwvT+3eS73dBZYVBRYAAIBfMQELYbf5QIsONqcJopu8uruZohxAOwYo6jdtUfWA9vzVdhVYUxZvKZE0kuQBAAD8iQtLhP4Yl/TSDpawdZdnt9QTAoD2nb+99k2IaleBlZ1JniOJ9/UAAAAAdJsnXj9ECN2goSWj57ezhBNAe3ldV2BZGZYPAgAA+BpTsBB+r+1p1ra6VoLoYn/dXK9UhnMMgPYOUUwXFlhs4A4AAADABx7byCysLs98E5kDOAFGkybfUZ043r923AVWZaV1ZHQGiQMAgHfjvXgA3WHFpkPMBupCmw+0aPMB7j4I4IQkcko16Xj/0nEXWK8O2TBOUiF5AwAAAOhu9S0ZPfkGG4p3ld+/eoAQAJyw9mzkftwFlpXD8kEAAPAB3N3FZwNDIkCE/G7VfmZhdYGtta3627YGggDQESOVzi+wZCzLBwEAAAD4xr7GtB7dWEcQnew3q/bL0hMC6BhnH+9fOP4ZWMacRs4AAAAA/OT3rx5US5p2pbNsrW3V88y+AtBxBl5z9+u9j+cvHFeBVbFkTZasxpAzAAB4Py4bAXSng81p/XF9LUF00vn91y/sY/YVgA4VT2cmHs/nH1eB5SXd8ZKyiBkAAMDnF5xcaCKClr66X7vqUwTRwR7beEiv7m4iCAAdKiPv1OP5/OMqsKx1WD4IAAAAwJda0lY/fXYPM0I7UG1zRgte3EcQADqckZl0PJ9/fAWWo0lEDAAAAMCv1uxp1p+r2NC9o/zqhb1qaPUIAkBn6MwZWGzgDgAAAMDfFr5Uo70NLCU8UU9urtczW9i4HUCnGTpl8ZaStn5ymwusW+eujBvZceQLAAAAwM+aU56+98Qu7kp4ArYcbNHP/raXIAB0JpNIpya29ZPbXGDtzSocKymbfAEAAPyPy3ZE3eYDLfrp3/YQRDs0tL5ZACbTLB0E0MlMps3LCNtcYBnHnEqyAAAAAILiyc31un/tQYI4DtZK/++p3drN3RwBdMU55zg2cm/7HlhGFFgAAOAoAxDm/ADwnwUv1eilHY0E0abzuPTL5/eSF4Cu1PEzsCRLgQUAAI7IyBACAN/xrPTdx3fpRUqZY1r0Uo3+xB0cAXStURVL1uS35RPbVGBVLLGukcaTKwAAAICgSXtWP3hil1bvbiKMI7j7lf1atobllgC6nNPakmhT39SmAiud3HSylfLIFQAAHAlLCAH4WWvG6jsrdmrNnmbCeJ/frdqv3796gCAAdAujtm3k3qYCy1o7kUgBAMDRBx8sIQTgby1pq/94bIf+urmeMCRlrNXc5/bqd6sprwB04xjStm0j91hbPskx9hTeUwUAAAAQdKmM1Y+e2q0tB1t006QeMhHt3htaPX3/iZ16bTcz0gB0M6MJbfm0ts3AksaSKAAAOPp4gbe7AATlfCUtW3NQP3xqt1oz0Tt37TzUqm88tI3yCoBfTsonV1baY/ZTsTZ+tXFiWQAAAACAEHn6jXrtqGvV58/vrcHFiQhcI0qPVNfprpU1SqY9DgAAfpH76ojqkyS9frRPOmbD9ebtDM0g8gQAAAjQhSoT4oA2eeNgi77yx21a+FKNMl54Xzh1yYy+u2Knfv63vZRXAPw3bvHMuGN9zjELrNZkfKyYfgUAAAAgpDKe1bI1B/XNP2/XjkOt4boolPTk5np9/oEtemF7I082AF/yrHfMrauOuYTQyIwTe1oAAAAE7qIVwPGpqknqCw9s1WXDCnXDxDIVZ7uB/nmqa5K668UardvLXlcA/M3IdESB5Y1lAhYAAEDQBoIA2iPjWT1cXaen3qjXtWNLdPXJxcqOOYH6GfY0pLTopRo9s6WBMhtAUAYuJ15gyZixnPUAAMAxMV7g6QBCpCnl6Tev7NefNtRpyuhiXT68UIU+n5FVXZPUA+tq9ezWhlDv5wUglAOX0RVLrLv0OpM50qccu8DyNI638AAAAABE0cHmtBa9XKPfrd6vcwfna/KoYo3ske2bx5exVn/b2qg/rDuoDfuSPGEAgio73bx+mKSqI33CUQusKYu3lCjT0o8cAQAAAERZKmP1xOv1euL1eg0tTeicwfk6fUCeBhcnuvyxpD2r1bua9OzWBj2/rVH1LRmeIACBZ+SMVXsLrJiXHMcOCgAAAADwd68faNHrB1q0+OX96pUf1+kD8nR6/zyN6JGtvKyO3y/LStpR16qqmqRe3d2kldsb1djq8UQACBkzTtKyI/3pUQssxx57F3gAAAD4kGX/G6Ar7G1I6cH1tXpwfa0kqXd+XENLExpSmtDQ0oR65sVVmO2qMNs95tSAjGe1vymtmqa09jWktau+VdU1SVXVJCmsAISeZ47eQR21wDLWjLWGwQ8AAAAAtMWehpT2NKT07NaG93zcMVJh4s0iK+7+vcrKeFJzylPKs6ptTou91wFElZFtf4FljR1HhAAAAMHDNTDgL56VapMZ1SbZrwoAjmDUrXNXxn9x2+mpw/3hMRZo29HkBwAAEDwUWAAAIGDie/KKRhzpD49YYFUsWZMvmd7kBwAAEEA0WAAAIGCcjI6/wPKas0aIWxACAAAEEts9AwCAoDHGG36kPztigZVxjtx6AQAAwOeYgQUAAAI3fDHHX2AZaymwAAAAAjsApMECAACBG8Ac/xJCGWZgAQAABHb8R38FAACCxlhmYAEAAEQJ/RUAAAgeM3D2vM3Zh/sT58iDHkOBBQAAEFDMwAIAAAHkHIynhx72Dw73wYolm4ok9SQ3AACAYKK/AgAAQeRaHXYZ4WELLC+ZYvYVAABAgFmmYAEAgEAOYrzDdlKHLbAyxqHAAgAAAAAAQJeyMm2fgWUs+18BAAAEe/AHAAAQyDFM2wssK284kQEAgOMcbMBHPJ4QAAAQQEa27UsImYEFAAAAAACArmcGzp63Ofv9H3UO/7liBhYAAECAsYc7AAAIKOdgPD30Ax98/wcqlqzJl9SDvAAAAIKLuxACAIDA8jTs/R/6QIHlNWUNJikAAIBgo74CAABB5cgb9MGPvU/GfPCTAAAAECwUWAAAILgDGTPw/R9yPvgBQ4EFAAAQ9HEfDRYAAAiuY8/AskYDyQkAACDY6K8AAEBgHaab+mCBJcsMLAAAgKBjChYAAAjqMKYtM7AMSwgBAAACzyMCAAAQUEbqf/GKFbF3f+wwBZYosAAAAIKOCVgAACC43J7bBvV79wfeU2BVVlrHSv3JCQAAINjorwAAQJBlvNR79sF6T4G1ZkhVX0lZxAQAABBsbIEFAACCzHOd96wQfE+BlZbD8kEAANAu9CV+ez54RgAAQHC9f492571/6FFgAQAAhAAzsAAAQLAHMzryEkLLHQgBAABCMuYDAAAILiN7tBlYFFgAAABhwAwsAAAQ6LGMdOQCyxpvIBEBAACEYtAHAAAQZEdeQmhk+pAPAABAGFBhAQCAQCutWLIt5+3/eU+B5Ul9yQcAACD4PPorAAAQcKnGht5v//f7ZmCpF/EAAACEAAUWAAAI+nDGdT9YYE2dt7lYUjbxAAAAhGDARwQAACDgXGM+WGC5amX/KwAAgJCgwAIAAIEfz1jvgwWW5zq9iQYAACAsAz4qLAAAEPDxjA4zA8tYjxlYAADgREYYAAAAQIdx7GEKLM8xFFgAAKD9DBH4CROwAABA4Mczxn6wwHp3qwUAAHD8Iwwi4OkAAADoQEYfLLCsLAUWAAAAAAAA/MEetsASSwgBAABCM94DAAAIvHe6qr9v4v6uaVkAAAAIOBosAAAQfEWz523Olt5VYMkyAwsAACAs6K8AAEAYNLpeL+ntAstaI6knsQAAAAAAAMAvMk66t/RWgVXx67UlkrKIBQAAIBysZQ4WAAAIwZgmY/5eYLUkEqVEAgAAAAAAAD+xRj2ktwqsmMmUEAkAAAAAAAD8xJEpfvPfkry0Q4EFAAAQIiwgBAAA4RjUeMXS25u4uyomEQAAgBCN9WiwAABAGMY0xpRIbxVYjmeZgQUAABCmwR4RAACAUIxp7N8LrLfbLAAAgPYPLgAAAICO9Z49sIyYgQUAAAAAAAB/sdK7ZmCJGVgAAAChGuwxJQ4AAIRDsfT2Ju6GGVgAAABhYlnUCQAAwuHvM7DkiQILAAAAAAAAfvOuAstQYAEAAAAAAMB3ciffUZ14axN3CiwAAIAwYQ8sAAAQFtnFpuitTdwpsAAAAMKE/goAAIRFxqRLnMpK60gqJA4AAAAAAAD4jbFOsbNmzOsFensvLAAAAIQDU7AAAEBIOMYpcVoyqTyiAAAACBf6KwAAEJ6BjS1w4l6cAgsAACBs4zwiAAAAoRnYeLmO56VzSQIAAAAAAAB+ZB0n1/HkMgMLAACc+MCCKT88IQAAAJ3AsV6uE/M8ZmABAACEDPUVAAAIz8DG5DrWMRRYAAAAAAAA8CdjchxPliWEAAAAIcMMLAAAEBaebI4jywwsAACA0KHBAgAAIeFIuY5jLQUWAABAyNBfAQCA0IxrjM11rDEsIQQAAAAAAIA/WZPrWMMMLAAAgNCN85iCBQAAwjOyyWUPLAAAAAAAAPiXMbmOI2ZgAQAAhI1lFywAABCWcY01uTErk8c2nwAAoAOGFkSA45blGmW55qifE3ONEq5z9M9xjLLjR/86jjHKiTvHfEz5WU6bHntrxqo18+Zx39jqqTXjaV9DWsm0xxMLAEAHMrK5McnmEAUA4EQlYkZ5cVd5WY7yEu57LkiNpLz3XRAmYo7ijjnsxWz8GBeziZhz7M9xjWLH+JzsmKOYc6zPMcf8nERbvk7ctOF7OXLf9TmbDyT1b4/s4OBCu1w2vEjj++S+f/SnvLh7zL+bl+XIHP1wVU7MkdMBr58wOtSS0b6GlPY2prWvIaU3DrZqw75m7apPcWACANA+uTEjE2eKOQDgPde4RirJjqlHXkxluW/+U5wTe7OcynKUl+W+57/zs5xIXqR2trbMFAGOpG9BXH0L4gTRDQoTrgoTroaVvffjtcmMNuxt1rp9Sb22u0mvH2ghLAAA2sRmx6xsjCAAIFoSMaN+hVnqkRtTz/y4ynJj6pH7ZmHVIy+m0pzYe2YCAQBOXHG2q7MG5eusQfmSpF31KT25uV5PvVGv7XWtBAQAwBEZNyZjXO6zDADhlBt3NKAoSwOLs9S/MEuDirPUvyhLvfLjop4CgO7VtyCu68aX6rrxpdp8oEUrNh3SoxsPsYcWAAAf5MZkmYEFAIE/mztGJ5VkaVhZtgYWZb1ZWhVlqTSXUzwABMGQ0oSGlPZUxfhSPbi+Vn/cUKeGlgzBAADw1iVPTLIx8T48AARKn4K4RvTIfvOfsmwNLU0cc1NzAID/FSRcXT+hTNeOLdHDVXX6/WsHKbIAAJFnpNhbSwgJAwD8KjfuaHBJQqN7ZuvkXjka0SNbRdkuwQBAiGXHHF0zpkSXDivUktUH9McNtez6AQCILCu5MWNtzDIDCwB8IxEzGtUzRxP65mp8n1wNLU0c83b2AIBwyk+4uvmMnjp7cL7mPrdX22rZ7B0AEEluTDK8jQ8A3XkmNkYjemZrQp8cndI3V6N6ZHMHQADAe4zplaMfThmkxa/s131rDrKAAgAQNbGYNYrxGxAAutbAoixN6PfmDKuxvXOUE3cIBYHHcALoXK5jNPPUHhrZI1s/eWaPmlLcrRAAEBkmJituUQUAXWBgcZbOHVyg8wfnq39RFoEgfKMKIgC6xNmD8jW4JKHvP75LW2pbCAQAEAkxSSwhBIBO4DpG43rn6KxB+TpzYJ5Kc3i/AOHGDCyg6/QtiOs7kwfou4/v0updTQQCAAi92Fv/AAA6QJZrNKFvrk4bkKezBuZzt0BECjOwgK6VHXP0zUv66X+e3KXntzUSCAAg1GJGivGOKQC0n2Okif3ydMmwQp3eP0+JGJfxiCbGE0DXi7tGX7mwr/7nyd16bmsDgQAAQoslhADQToOKs3TpsEJdMKRAJSwPBAB014DeMfrKhX3030/s1nPbKLEAACH9fWelPGIAgLbJz3J07uACXTy0QKN75RAIAMAXXGP0xQv66F/+vF0b9ycJBAAQOjFJvYgBAI7MMdK4Prm6YkSRzhyYp5jDEkEAgP9kuUZfv6SvvvbgNu1vShMIACBUWPMCAEdQnOPqkqGFmjK6WKW5nC4BAP5XmhPTNy7pp3/583Yl0x6BAABCgysyAHifYWUJXTW6ROeflC+X2VYAgIAZWprQrNN6aO5zewkDABAaFFgAoDfv4nTGgDxdfXKJRvXMJhAAQKBdMbJIL2xv1Es7GgkDABAKFFgAIq0kJ6YrRhZp8sgiFWZzU1YAQDgYSZ85u5e+8MAWNbSylBAAEHwUWAAi6aSShKaPK9HZg/PlGpYJAh3BWjIA/KQ0N6Y5p/fUj5/ZQxgAgMCjwAIQKUNKE5o+rlTnDM4XtRXQseiCAf+5ZFihHtl4SOv3NhMGACDQKLAARMLoXjmaNrZEpw3Io7gCAETK7NN66BsPbROTJAEAQUaBBSDUTu6Vo/KxJTp9QB5hAAAiaWSPbJ0xME/Pb2NDdwBAYGUosACEjpF0av88VYwv1cge3FEQ6CrsgQX4102TeujF7U3K8EIFAAQTBRaAcBnXO0czT+uh4WUUVwAAvG1AUZbOHJSnZ7c0EAYAIIjSFFgAQqF/UZY+NqFM5w7OJwygm7CJO+BvU0YVU2ABAIKKGVgAgq00N6brxpfqsuGFcrl6BroVK5MAfxvTO0fDyhLatL+FMAAAQUOBBSCYsmOOJo8q0kdPKVVO3CEQAADa4MMji/XTZ/cQBAAgaFhCCCBYXMfowyOKdN34UhVmuwQCAMBxuOCkAt35wj4l0x5hAACChBlYAILj1P55uuWMnupbECcMAADaIREzmtQ/l72wAABBwwwsAP5XmhPTjFN76KKhBYQBAMAJOntQPgUWACBYrJoosAD4lmuMJo8q0scmlrHPFQAAHeT0/nmKu0apDHdeAAAEhKHAAuBTJ/fK0W1n9dKg4izCAACgA+XEHZ3SJ1cv7WgkDABAUFBgAfCX/ISr68eX6spRxTKGPAAA6Axje+dQYAEAgoMlhAD8whjp8uFFmjGpTPkJ7i4IAEBnGtUzmxAAAAG6YFQzBRaAbtcrP67PntNb4/rkEAYAAF1gRFm2Yo5R2mMfLABAAFjLDCwA3evioYX65Jk92aQdAIAuFHeNhpYmVFWTJAwAgO8ZYyiwAHSPstyY/uGc3prYL5cwAADoBkMosAAAAeEZZmAB6AbnDs7Xp87qxV5XAAB0oz4FcUIAAASC8ZiBBaALFWW7+tRZvXTWoHzCAACgm/XJp8ACAAQEM7AAdJVzBufrtrN6qZBZVwAA+AIzsAAAweFwF0IAnSsRM/rEGb102fBCwgAAwEd6U2ABAAKDGVgAOlH/wix95cI+GlySIAwAAHwmO+Yo5hilPUsYAABfMywhBNBZLhpaoNvO6qXsmEMYAAD4VG7c0aGWDEEAAPzNsok7gA4Wd41mntpDU0YXEwYAAD6XQ4EFAAgAjxlYADpSv7eWDJ7EkkEAAAIhO85MaQCA/xnrHKTAAtAhLhxSoE+dzZJBIMrYRQcInoRrCAEA4H/Gq6XAAnBCYo7RJ87oqStGFhEGAAAB05qhegYABOC608aYgQWg/QoSrv7pwr4a1yeHMACIeRxA8FBgAQCCoMFhBhaAdhpUnKVvXNJPvfPjhAEAQEC1pD1CAAD4XeahG4fXU2ABOG6n9s/Tly7oo1w2fgUAINCYgQUACIBaGWMpsAAcl6tGF2vO6T1lWCsE4H24DAaCJWOtmlqZgQUA8L1aSaLAAtAmcdfoU2f10iXDCgkDAIAQ2N+YVsZSPQMA/M3KHJQosAC0QWHC1Vcv6qsxvdmsHQCAsNjXmCYEAIDvGVkKLADHNrA4S7df2l898jhdAAAQJvsaU4QAAAiCWokCC8BRjO6ZrX++pJ/yEy5hAAAQMnsamIEFAPA/IzEDC8CRje+bq69f3FfZMe40CABAGL2+P0kIAIAgqJUosAAcxkVDC/TZc3rLdbjVIAAAYbVxfwshAAB8z5OtlSiwALzPlNHFuvn0njJ0VwAAhNa+xpQONrOEEADgf4a7EAJ470lBum5Cma4fX0oYAACEXHUNs68AAEHBDCwAb3GN0afP6aVLhxUSBoD2Dy0sGQBBsXZPMyEAAALBWHePRIEFRF7cNfrKhX11xoA8wgAAICJe2N5ACACAQMi4do8kcXsxIMJiDuUVgI7D3nlAMGw+0KJ9jex/BQAIBieTpsACoizmGP3TRZRXAABEzfPbGwkBABAUqQmbR7OJOxBVMcfoqxf11emUVwA6EHtgAcHw/DaWDwIAAmNvZaXxJGZgAZHz9swryisAAKJn84EWbT7AHQgBAIGx5+3/oMACIoQ9rwAAiLYHN9QSAgAgOIyhwAKi5u3y6syBlFcAAERRY6unp99g+SAAIDiMte8UWOyBBUQAG7YDAIAVrx9SMu0RBAAgMKxlCSEQGY6Rvnh+H8orAAAiLJWxum/NQYIAAAQLSwiB6Jhzek+dMzifIAAAiLCHNtRqf1OaIAAAgWJkKbCAKLh+fKmmjC4mCAAAIiyZ9rSM2VcAgADyHAosIPSuGFGk6yeUEQSALmNlCQHwofvX1qoumSEIAEDgGM+lwALC7IwBefrkWT0JAkDXDjBkCAHwmT0NKS1n9hUAIKBiaWZgAaE1pneOvnJhX7mGC0kAAKLMSvrZ3/Zy50EAQFClx24dvv/t/6HAAkJkUHGWvn5xP8VdyisAAKLuz1V1Wr2riSAAAEG1vbLSvPMuDAUWEBK98uP618v7Kz+LlzWA7sEeWIB/1DSmteilGoIAAASX0dZ3/y9XukAI5MYdffPSfirNiREGAAARl8pYfe+JXWpKsXQQABBklgILCBNjpM+f30cDi7IIAwAAaO5ze7Vpf5IgAADB5jkUWECY3DSph84YkEcQAABA9609qL9sOkQQAIDgM3bbu/+XAgsIsIuGFqh8bAlBAAAAvbC9UQvZ9woAEBLGiAILCIOhpQl96qzeBAEAAPTSjkb99193yeNeCgCAkMiYzHuWELLjMxBAJTkxfeOSfkrEDGEAABBxL+5o1Pef2KVUhvYKABAeWVlZFFhAoF/ErtE3LumrslxevgAARN2zWxr0w6d2K8PUKwBAuBxaet2wund/gCtgIGA+c05vDS/LJggAACLMSlq+5qAWvVwjS3cFAAifre//AAUWECDXjCnRhUMKCAIAgAhrTnm64+k9em5bA2EAAELJUmABwTWyR7ZmTCojCAAAImxHXau+/8QubatrJQwAQGgZCiwgmPKyHH3xgj5yHTZtBwAgijLW6v61tfrtqv1s1g4ACD1j7Lb3f4wCC/D7C1fSZ8/prd75ccIAACCCXj/Qop8+u0evH2ghDABAJHiewwwsIGiuHF2sswblEwQAABFT05jW7189oEc21rFROwAgUqzjbXn/xyiwAB8bVpbQzFN7EAQAABGyrzGlB9bW6s/VdSwXBABEUlY6q/r9H6PAAnwqN+7oyxf0Vdxl3ysAAKJg0/4WPbShVk9srlfGo7gCAERWw9LZJ+3RnPd+kAIL8KnbzuqlPgXsewUAQJjtb0rrb1sb9JdNh7SZPa4AAJCMNsqYD7yTQ4EF+NCHRxbpgiEFBAEAQMhkrNWm/S1as6dZL+5o1Lo9zWKuFQAA72JVfbgPU2ABPtO/MEtzTu9JEAAABH38baWappR21adUXZPUmj3NWr83qWTaIxwAAI7AyGw83McpsAAfcYz02XN7K4t9rwAAOKZUxqrlGJuce55V8zEKI2ulxtZjl0qNqYzePV2qodVT2rNKpj0lU57SnnSgOa3d9SntqU9pT0NKafayAgDguFgrCizA764ZU6JRPbMJAqHUnPLUnPLUkrFqan37vz0l01aNrZkj/r20Z9WSPvIFYGNr5oi3l2/JWKWPcHGbsVbNqSNfsDalPB3pujOVsWrNeO26EE6mvSNuzpz2FOiZGZbrdF95YXujXtze+E7BcqznrjHVhgLnKK/Vd147rUd+7bTldfDu1y934AMAIHqMtRRYgJ8NLMrSxyaUEQQCJ5Wx2teY0t6GtPY0pHSgKa2DzWnVJTOqS2Z04K3/5kIU6Foba5J6uLqOIAAAQLC4afbAAnz7+jRG/3heb8VZOggfO9ic1tbaVm052KJtda3adejN5TEHmtPMvAEAAABwwozUeO9NJ+/WjA/+GQUW4ANTx5ZoeBlLB+EPVtLOQ63aWNOi6pqkttS2aEttqxpaMoQDBOy1DAAAELDxy0YZc9hhDAUW0M0GFyd0/YRSgkC3aUp5Wre3WVU1SVXXJLWxJqmGVu6QBQAAAKCLGVUf6Y8osIBu5Bqjz57bSzGHpYPoOq0Zq9f3J7VuX1KrdjVp7Z5m7pKFjhlvcCrzFZb2AgCAAA5gNh7pjyiwgG700VNKNIylg+gCOw+1vnNHsg01STZURyeNN8gAAAAAJzCelEOBBfhN34K4po1j6SA66cRvpdcPtGjljkat3N6gTftbCAWI3ACQRhEAAASLkSiwAL+57axe3HUQHXuxaqV1+5r15OZ6PbulQYfYdB0AAABAoJh1R/oTCiygG5x3UoHG980lCHSIbXWtemZLg554/ZB216cIBIAklnQCAIDAqVk2c/jeI/0hBRbQxXLijuac1oMgcEIaWj098fohPVJdp621rQQCAAAAIOheO9ofUmABXez68aUqzeWlh/bZtL9Fj1TX6YnNh9SSZnoFAAAAgLAwa472p1xFA11oYHGWpowuJggcl2Ta0182HdKfNtRpex2zrQAAAACEjzWiwAL84pNn9JLrsHE72qYumdGfqur04Ppa1bMhO4DjHQQSAQAACBAnYymwAD+4aGiBxvXJIQgc07baVt239qCefKNeqQyXoAgOjlYAAAC0VyrLrj3an1NgAV0gN+5oxqls3I6j21bbqmVrDuqJzYe4exgCifml/sJ5BAAABMieBz4+quZon0CBBXSBivGlKs3h5YbD21bXqiWr9uuZrQ1ccCLQOHwBAADQzoHka8f6FK6ogU7WIy+mK0cVEwQ+YFd9Sr99Zb+e2lJPcQUAAAAguo6xgbtEgQV0uo9PLFPcZWEN/q6h1dOy1w7oD+tr2eMKIRt3wE84uwAAgMCMWyiwgO41uDihi4YUEgQkSRnP6rFNh3T3K/t1KMldBRHCgQcRAAAAoB2cjEeBBXSnGaeWyTAlAZJe3NGoeStrtPNQK2EAAAAAwLu46cy6Y30OBRbQScb0ztGp/fMIIuIONqe18KX9evz1Q4QBoEtZNtcDAACBGLRo59JPjD1wrE+jwAI6gZE0Y1IPgoj0haP0yMY6LXixRk0pj0AAdMNYEAAAIACcY9+BUKLAAjrF2YPzNapnNkFE1OYDLfrZ3/Zq4/4kYQDovrEga9gBAEAAGGtebMvnUWABHcw1Rh+fUEYQEeRZ6b61B/WbV/Yr7TH3AUA3DwaJAAAABICVXm7L51FgAR3s8hGF6l+URRARs6s+pR89tVtVNcy6AuAPDg0WAAAIgIwxbSqwHKICOo7rGJWPLSGIiHni9Xp9+Q9bKa8A+AorCAEAQAAcuv+mYZva8onMwAI60EVDCtQrP04QEdHQktEdz+zRyu2NhAFI7BruM4ZFhAAAwP9ekjFtGkVSYAEddaFgpGuZfRUZm/a36L//ukt7GlKEAbxzIiQCP2EJIQAACMCF9Ett/VQKLKCDnDsoXwPZ+yoSHq6u06+e38dG7QB8Ph4kAwAA4G/Wa9sG7hIFFtAxFwmSpo0rJYiQS6Y9/d+ze/X0G/WEARx2BEIEvvrdRIMFAAD8Pnx0xQwsoCud2j9PQ0oTBBFiB5rS+q8VO/X6gRbCAI6EvsRXuFMPAADwuaasrOEb2vrJFFhAB5g2jr2vwqyqJqnvPr5Ttc0ZwgCOhhlYvsIELAAA4HOrll5n2nyRRYEFnKBxvXN0cq8cggipZ7c06I5ndqslzZU5gGChwAIAAD4frbx0PJ9NgQWcIPa+Cq+lqw/ot6v2M6kEQCA5/7+9O4+Puy7wP/7+zJG7SXrfLW1zFMotrHLIoYgIq1BcqgJJKbjLurrqrvpD1wt1PRCVhXVRUKG0nsQmaUsFy1VuyllKW9r0om3apLnvTDIz38/vDxA5WppjJvker+fjwS6WZuY778nMfL7v+Xw+XxosAADgYlYD38BdosAChmXuuEydOC2HIPz2RmqlXz/bqHu3tREGAM8K018BAAA3j1WsmIEFjJQL5xcSgs8krdUvnmrQQzs7CAOAp3EVQgAA4GL9oez+zYP5AQosYIjyM8N6/1FjCMJH+hJWNz5apxf2dxMGAM8L0V8BAACXMtKLFYsW9A/mZyiwgCH6YFG+oqzP8I2euKP/fuiAtjb0EgYwROwX5y5hZmABAAC3jhutnh7sz4SIDRi8kJHOLykgCJ+IJRz94GHKK2C4qEtc9nzwhAAAANeOG+1Tgz4PJzZg8E6dkafJeVGC8IG+hNUPHjqgLQcprwD4C0sIAQCAW4VNhAILGAkfKWX2lR/0J61+8PABbaK8AuBDIaZgAQAAN7I6UFE+b++gxzYkBwzO9IIMHTc1hyA8Lp60+tG6A3q5vocwgJSNReAmYUZ5AADAhYzRU0P5OYY2wCB9pLSAfV58cJJ969MHteEA5RWQ0sEIEbjrvY5GEQAAuHOUQoEFpFt2NKRz5uYThMfd9XyTHtnVSRAA/D00JAIAAOBGjn16KD9GgQUMwllzxignysvGy+7Z2qZVW1oJAkgDChMAAAAcQTyck/vCUH6QM3FgEM6dx+wrL3u2tltLn2skCAAAAAAYHS9WLJo5pKtoUWABAzR1TFTFE7IIwqNqmmL6yaN1cpgiAiAg2AMLAAC4b4AytA3cJQosYMDOmZvPBsUe1RZL6sZH6hRPcjYHIEjjQwAAAHcxQ9zAXaLAAgb4IpPOmjuGIDwoaa1++midmnsShAEgYKiwAACAu4RNhAILSKf5k7I1OS9KEB5053NN2nywlyAAAAAAYHTVVZTP2zvUH6bAAgbgbGZfedIjuzr1l61tBAGMEOb7uOz54AkBAABuYvTEcH6cAgs4gmjY6IzZFFheU9cZ123rGwgCGNExCdyE/goAALhrbGIfGc7PU2ABR3DKjFzlZvBS8ZJ40uonj9YplnAIA0CQR4kAAACuYWx43XB+nrNy4AjOmZtPCB7zuw3N2t3SRxAAAj5KJAIAAOAazSfsmrdlODdAgQW8izGZYZ00LYcgPOSluh6tfqWVIIBRwIQfdwkZGiwAAOAaj1x/vRnWEhkKLOBdnDojV5EQJwBe0dGX1C1PHGTjYgCQxMcXAABwkUeGewMUWMC7eO+sPELwkDuebVRrb4IggFFCX+IuFFgAAMA14xLrrBv2bRAjcGiZEaPjp7B80Cs2HOjRo7s7CQIYRUx+dNlAkSWEAADAHVqO2126adhjG3IEDu3EqbnKjDD494K+hNVt6xsIAgDehP4KAAC4Y1Ay/P2vJAos4LBOnZlLCB7x+w1NOtgVJwgAePMgjwYLAAC4gE3B/lcSBRZwmEG/dMp0Ciwv2Nkc05qtbQQBAIf4LAMAABh1CQosIG3mT8pWflaYIFzOSvr1s41y2HgHABjkAQAAN2o5cU/xRsY2QJq8dyZXH/SCx3d3altjjCAA4FCYgQUAAEadfSwV+19JFFjAIZ0yg+WDbteftPrti00EAQCHYWiwAADAqAs9krJbIkzgrWYXZmrqmChBuNzKza1q7E4QBAAcBnu4AwCA0WaT9uFU3RYFFvA275mRQwgu19KbUNXmVoIAXDdCYUM6N6G/AgAAo+xg9VXFL6XqxiiwgLc5bgoFlttVbGxRLOEQBOA2TPnh6QAAAHhjMGLvlzEp+4aTAgt4k0jIqHRiFkG4WFN3Qg/t7CAIADjSmJEIAADAaI5FbGhtKm+PAgt4k5KJWcqK8LJws8rNLYonWaYEAAAAAC5mZeIPpPIGOVMH3uS4ydmE4GKtvQk9uIPZV4B7hymUy25iWEMIAABGbSCilyrLjqlL5U1SYAFvciz7X7nan19uZfYVAAx43AgAADBK4xCrtam+TQos4HUZYaOSCex/5VatvQk9sKOdIAAAAADA5ZyQpcAC0mX+pGxFw3xf7Vb31bQz+woABoEVhAAAYJT09LWEHk/1jVJgAa87bgr7X7lVPGl1fw2zrwBgMOivAADAaLDSuns/X9yX6tulwAJedxz7X7nWo7s71RZLEgQADAYNFgAAGJ0xyNp03CwFFiApOxrSvHGZBOFSa7a2EQIADHrsCAAAMApjEEuBBaRNyYQshUMM9d1oU32vXm3tIwgAGOzgkQoLAACMvNqq8pJX0nHDFFiApKLxXH3QrdZuZ+8rABgKNnEHAAAjzpr70nXTFFiApHnjWT7oRj1xR8/WdhEEAAwB/RUAABiF8cdf03XbFFiAmIHlVk+82qm+hCUIABjiCBIAAGAE9ScSSQosIF0Ks8KakBshCBd6eFcnIQDAENFfAQCAkWSlh1ddMz9tJ3EUWAi8ognMvnKjus64tjX0EgQADBEFFgAAGNmxh12dztunwELgzRvH/ldu9MiuDrF4EPAWXrNuG0VSYQEAgBEcCyadNem8fQosBB4zsNzpyT1s3g4AwxpEWipFAAAwYl6qXnL0q+m8AwosBN68cRRYblPXGVdtez9BAMAw0F8BAICRYqTV6b4PCiwE2oTciAqzwwThMk/vZfYVAAyXQwQAAGCkxh3WUmAB6TRvPLOv3OiZfRRYADBszMACAAAj4+CJu0ueS/edUGAh0I4qzCAEl2mLJVXTFCMIABgmhwYLAACMBGtWX3+9SfvkbwosBNq0Agost3l2Xxf7tgBAKsaSvJcCAIARYELp3/9KosBCwE3Pp8Bym5fqeggBAFKAAgsAAIyA3nhP7gMjcUcUWAgsI2lafpQg3HSyJWnLwV6CAIAUcGiwAABA+s+rH1h97bQRmYVAgYXAGp8bUVaEl4Cb7GvrV1ssSRAAkALUVwAAIP3jDbt6pO6Ls3cE1jSWD7rOpnqWDwJAqjg0WAAAIM3DDWOS94zUnVFgIbDY/8p9NrF8EAAAAAC8wejxyrJj6kbq7iiwEFjT2f/KVaykzRRYgOdfx3DR88ETAgAA0sg4+vNI3h8FFgJregEzsNykrqNfnX3sfwUAqcIm7gAAIJ1DjbBs5UjeIQUWAoslhO6ys6WPEAAgheivAABAGj1Zsbh0/0jeIQUWAikzYjQ+J0IQLrKzmQILAFLJIQIAAJAm1ozs8kGJAgsBNSkvKmPIwU12MwMLAFI8smQKFgAASM8oI2rDVSN9pxRYCCRmX7ns3U/SrpYYQQBACjEDCwAApIORfaqifN7ekb5fCiwE0rhsCiw3qe+Mq7ufUy0ASCUmYAEAgPQIVYzKvRI8gmgcM7BcZW8ry88rJ9kAAEMgSURBVAcBX6AwcdfTwfMBAADSMMQIK1Q5GndMgYVAosBylwOdcUIA/IC9BV3FocECAACpZrV+NJYPShRYCCj2wHKXug4KLABI/fgSAAAg5SOMitG6ZwosBNK47DAhuEhdZz8hAECqh5c0WAAAIMXDCxNJrhitO6fAQiCxhNBdmIEFAGkYYTIHCwAApJCRnqm84pg9o3X/FFgInLAxKsiiwHKLWMJRa2+CIAAgxRz6KwAAkELW2rtH8/4psBA4Bdlhhdho2DUOdsWZIwD4ZlRDBDwfAADAp5yI9KfRPACmoSBw2MDdXVp7koQAAOkYZRIBAABIFaMHKspL94/mITADC4FTmMUG7m7SHqPAAoC0YAYWAABI3cDid6N9BBRYCJycDH7t3YT9rwAgPRwaLAAAkBq9kczIytE+CM7kETg5UWZguUkbM7AAIC2SrCEEAACpYFVdsWhe+2gfBgUWAicnyq+9mzADCwDSI8FlCAEAQAqYkH7nhuPgTB6BkxXlEoRu0tbLDCwASIckBRYAABi+xgk9HWvdcCAUWAicbGZguUp3PwUW4BfUJe6S5AkBAADDZKz50+3XnhJ3w7FwJo/AYQmhu/QlOMMCfDPAIQJXSdBgAQCA4Qq7Y/mgRIGFAGIGlrv0scswAKRF0lJgAQCAYdlZeUXRerccDGfyCBxmYLkLM7AAID3YxB0AAAyHsfa3MsY1AwrO5BE4FFju0pdgBhYApAMTXAEAwHBYOb930/FwJo/AyaLAcs8bopXi7NECAGnBVQgBAMBQGWl91eKja9x0TJzJI3CYgeUe/UnLVcsAH+H17C7sgQUAAIbKMbrDbcfEmTwCxxiukwUA6RDm7dVV2AMLAAAMUa8S0bvddlAUWAjegJ4la64RCZMB4K/XNA2Wqz7v2AMLAAAMhdHd1UvmtLntsCiwEDhxvpF2jbAxCnG+C/hGhBe0q7AHFgAAGApH9jduPC4KLAQOM7A44QXA6zkIKLAAAMDgmZqVV5Y87sYjo8BC4DADy12iLDkCfIMCy134vgYAAAya0R0yxpWjCAosBA6b2nLCCyA9KKTdpT/JJlgAAGBwp8vJSHK5Ww+OAguBE+craVfJjvI2BPgFhTSfdwAAwMOs/rLqU/MPuPXwOHNE4DADy13yM7kUIeAXeRkMK9yknwILAAAMggmZ37j5+BhpInD4RtplJ7wUWACvZ/B5BwAARtvBCT3t97r5ACmwELwBPTOwXIUZWIB/jOH17K7POwosAAAwUFZLb7/2lLibD5ECC4HDEkJ3yc/ihBfwCwosd2EJIQAAGKiQY5e6/hh5mhA0vXGuyuSuE17ehgC/YA8sd4lzFUIAADAwj61YUrrV7QfJSBOB09mXJAQXGZsdIQTAJ9gDy12YgQUAAAbCWnO7F46TAguB0xGjwHKTSblRQgB8IBwy7GnnpoGo2AMLAAAMSFOhE/mzFw6UAguB08EMLFeZlMcMLMAPJuREFDLk4BaJpBX1FQAAOBIj86ulS+bEvHCsFFgInM4+9gRxk/G5EYU56wU8byJltKuwfBAAAAyAE1fyV145WAosBA5LCN0lbIwm5HDiC3gdy4HdheWDAADgiKzuWV0+f7dXDpcCC4HDJu4uPPHN48QX8LqJvI5dpZ8rEAIAgCMIGXOrp46XpwxBwx5Y7jMtnxNfwOsm5jKT0k2YgQUAAI5g53G7iu730gFTYCFweuMOA3uXOWpsJiEAHjeZGViu0h1nBhYAADg8I/uL6683nhowUGAhkFhG6C4UWID3zSzMIAQXaeyKEwIAADicXmudpV47aAosBBLLCN1l9tgMGS5ECHjW2OyI8jPDBOEiDd0JQgAAAIfzh6rFRzd77aApsBBIrb0UWG6SFQlpCsuPAM9i9pX7NFFgAQCAwwjJ+YU3jxsIoIMsrXCd2SwjBLz7+qXAcp3Gbj7nAADAOxlp/Yry+c958dgpsBBIBzsZ2LtN0fgsQgA8amYhBbTbNDIDCwAAHIK19hdePXYKLARSAzOwXGf+JAoswKuOGssMLLdhE3cAAHCoIUIkO+durx48BRYCiSWE7lM8PkvRMDu5A16TETZcSdRluvsd9cQdggAAAG9hrL21YtHMXq8ePwUWAokCy32iYaN5LCMEPKdofJYiIcpnN2li/ysAAPBOfWEn45defgAUWAik7n5HXf18O+02R0+kwAK8ppTXres0sP8VAAB4GyP724olc+q9/BgosBBYbOTuPkdPyiYEwGNKKLBch30eAQDA2xlrb/H6Y6DAAgN8uMaxU7LZBwvwmNKJFM9us6+9nxAAAMCb2PtWLJ6/0euPggILgcU+WO6TFQnpaE6GAc+YOiaqwqwwQbjMvjYKLAAA8HfWCd3kh8dBgYXAYgaWO508PYcQAI84cVouIbgQM7AAAMCbbKpeXHS/Hx4IBRYCq5YBviudPJ0TYsArTpxG4ew2Lb0JdfUlCQIAALzGmptkjPXDQ6HAQmDtbu2TJQbXmVGQoSljogQBuFwkZHTsZJb8us3eVr6cAQAAb2gocCK/98uDocBCYHX3O2rmUuOuxCwswP3mT8pSdpRhhNswuxgAAPyNsfr50iVzYn55PIw8EWi7W/sIwYXOmJ1HCIDLncT+V660t43PNQAAIEnqjUftL/z0gCiwEGivUmC50vxJ2ZqQGyEIwMVOZv8rV9rLFQgBAIAkGS1bfXlpk58eEgUWAo0Cy63vtdIZs8cQBOBS0/MzNHtsJkG4jBVLCAEAgCTJCSXs//jtQVFgIdBebaHAcqszj6LAAtzqdJb5ulJTd1w9cYcgAAAIOCNVrVhSutVvj4sCC4FW3xVXLMFg343mjc/UtPwMggBc6AwKZleqaYwRAgAAkJHzIz8+LgosBJq10h4uOe5aZ8/lJBlwmxkFGZpVSLnsRtubmVUMAEDgGa1dUT7/OT8+NAosBB77YLnXeUX5CocMQQAuwuwr99rW2EsIAAAEnJX5oV8fGwUWAo8Cy73GZkd0yoxcggBcwkg68yj2v3KjhGO1i30dAQAI+lhtfXVZ8Tq/Pj4KLATeNvYMcbXziwsIAXCJYyZnazp707nSrpY+xZOWIAAACLCkzPf9/PgosBB4e9r61N3PRu5udeLUHE3OixIE4ALnFVEouxUbuAMAEHhbTtpVtMbPD5ACC4FnrbSVfUNcyxjpQ8zCAkZdbkZIp81m+aBb1TRRYAEAEOjzWqP/vv564+uZGRRYgKRXGiiw3Oz8kgJlR3m7AkbTWXPylRHmogpuxQbuAAAE2q62Gfsr/P4gOSMEJG1p4JtrN8vLCOmDRfkEAYyi83gNulZbb1KN3QmCAAAgoKzRDevOPdf3gwEKLEDSzuYYm9+63MeOHqtwiNkfwGg4dnK25ozLJAiXYvYVAABBZusLE9FlQXikFFiApHjSanszs7DcbEJuRGcexf47wGi4ZMFYQnCxl+p7CAEAgIAy0k+WLpkTiJNZCizgdeyD5Y2TaOZgASNrZkGGTpqeSxAutrGOzy8AAAKqKZyVuC0oD5YCC3jdK+yD5XqzCzP1vlnMwgJG0sUUx67W2B3XgY5+ggAAIIiM+UnFogVdQXm4FFjA67Y29MphGyzXu/yk8QobTqeBkVCYFdb7jxpDEC72Uh3LBwEACKimZH/y1iA9YAos4HU9cUe7WpiF5XbT8zN01lxOqIGRcMmCsYqGKYzd7KUDFFgAAASS0Q2rrpnfGaSHTIEFvMnz+zkR8IJPnjCOk2ogzcZmR3RBaSFBuJi10sv17H8FAEAAHUz05N0atAdNgQW8yQv7uwnBAybmRnVeUQFBAGl02fHjlEFR7Gq7WmLq6EsSBAAAgWNuWH3ttMDNvqDAAt5kR3NMbTFOBrxg0fHjlBPlLQxIh0l5UZ1XlE8QLreB/a8AAAggW5/ozb0tiI+csz/gzW8FVnqRWVieUJAV1idOGE8QQBosOn6cIiFmX7kdG7gDABBE5odBnH0lUWAB7/A8BZZnXFhaoJkFGQQBpNCswgydzYUSXK837mhbIxceAQAgYOoiWdm/CuqDp8AC3mbDgR4lHUsQHhAOGX36HyYSBJBCV71nosKG2Vdu99z+bsWTfFYBABAkxpr/rlg0M7BXcKHAAt6mJ+7oFb7V9ozjpuTofbPyCAJIgdNm5+nEaTkE4QFP7+0iBAAAgmVfb7t+E+QAKLCAQ3i+lmWEXnL1KRPZ0B0Ypoyw0eKTJxCEB/QnrV7cz/5XAAAEibH6/r2fL+4Lcgac8QGHwD5Y3jIhN6JyTryBYVl47DhNyosShAe8eKBbsYRDEAAABISV9oaz43cGPQcKLOAQatv7Vd8ZJwgP+VBJgY6bwtInYCimjonqkmPGEoRHsHwQAIBgMdZ8p2LRgv6g50CBBRzGE3s6CcFLb+qSPnvaJGVFeFsDBvvaufa9k5QZYeN2L0g6lmXuAAAEy9bWWbXLiIECCzisx3fzDbfXTMqL6vKTxhMEMAgfLinQ8VOZvegVL9f3qquf5YMAAASFMea6deeemyAJCizgsPa09WlvWz9BeMxFpYU6gZNxYEAm5EZUxv5xnvLkHr5cAQAgKIy0vvLKotUk8RoKLOBdPLabZYSee5M30hfPnKLC7DBhAEfwmfdNVjZX8PQMx0rP1lJgAQAQmM9+Y74qYyxJvIZRK/AuHn+1U7xbeE9BVlifO22y2NEHOLwLSgp00jRmK3rJxroetceSBAEAQAAYaXV1WfE6kvg7CizgXRzsimt7U4wgPOjk6bn6KFdVAw5pVmGGrjplIkF4zMM7OwgBAIBgcKyx3ySGt6LAAo7gcZYRetaVJ41X0fgsggDeJDNi9KWzpiojzBxFL+mJO1q/j+WDAAAEgZGWVZWVvkQSb0WBBRzB43s65bCO0JMiIaOvnjtV47IjhAG87ppTJ2lmQQZBeO2zaHen+pN8GAEAEACxsMLfJoZ3osACjqCtN6lNB3sIwqPGZUf0n2dNUTjEbBPg/UeN0XlF+QThQQ/vYvkgAABBYGX+r6J83l6SeCcKLGAAWEbobcdMytY17PeDgDtqbKY+c9okgvCg/R392tbIfowAAARAu7GJHxLDoVFgAQPw+Ktd6ok7BOFhF5QW6EPFBQSBQBqTGdZ150xVVoSPfS9at5MvUQAACAIre0PV4qObSeLQGMkCAxBLOHqUWVie9+lTJ+rYydkEgUAJh4y+cvZUTc6LEoYHOVZax/JBAACCoC7ZO+ZmYjg8CixggP5a004IHhcNG3313Gk6amwmYSAwrj5lAsWth22s61FzT4IgAADwO6Ovr752GpsvvwsKLGCA9rT2sQeJD+REQ/r6B6ZpfA5XJoT/XVhaqI+UFhKEhz24k9lXAAD4nZVePGFn8V0k8e4osIBBWLudWVh+MD4nom+dN115GbwFwr/+YWaurj6Vixd4WUtvQk/v7SIIAAB8LuToi9dfb9h0+Ug5EQEwcE+82qmuviRB+MDMggxdd840ZYQNYcB3jp2crS+9f6pC/Hp72l+3tSvpWIIAAMDPjP5ceVXJowRxZBRYwCD0J60e3sVm7n6xYHK2vnbuNEUpseAjswszdd05/F57XTxpdT+zfgEA8P8ppkJfI4aBocACBmltTbv4Ptw/Tpiao+vOnqoIU1XgA1PHRPWt86Ypl+Wxnvf4q51qizHjFwAAf7M/W1VWtIMcBoYRLjBI+zv6tbm+lyB85OTpufrqOVOZsQJPmzomqu+dP0Njs7lAgR/8ZRuzrwAA8LmGSFbkR8QwcBRYwBDcW9NGCD5z8vRcffHMKczEgidNHRPVd8+foXFcXdMXXmno1c5mrnoLAICfGWO/XrFoHt9YDQIFFjAE6/d2qa4zThA+c9qsPH3jg9OUFeGtEd4xMTeib583XeMpr3xjzdY2QgAAwN9eCmeW3EkMg8NZGjAEjpVWb2klCB86fkqOvvVB9hCCN0wvyND3PzxTk/KihOETzT0Jrd/bTRAAAPiZ0VcqFhk2uxwkztCAIXpoZ4fa2WDXl+ZPytb3zp+hwuwwYcC1SiZk6fsfnqEJucy88pN7t7UpablUCAAAvmVUVVVWcj9BDB4FFjBE/UnLMg8fO2pspr7/4ZmaMoaZLXCfk6fn6voPTVd+JiWrn/TEHd3H5u0AAPj6NDIUCl9HDENDgQUMw33b2tQbdwjCp6aOierHH5mpYydnEwZc4+y5Y/S1c6ayV5sPrdnaph4+UwAA8C+jm1dcMW87QQwNo19gGLr6HT2wo4MgfCwvM6xvnTdd587LJwyM8nhHuuz4cfr8GVMU5mqZvhNLOFrzShtBAADgX7WRzPh3iWHoKLCAYVq1pVUJh/1K/CwSMvr30yfrmlMnytAbYBREw0afP2OKPnXCePEr6E/3bWtXRx/7KgIA4FfWmC9VLFrQRRJDR4EFDFNzT0KP7e4kiAC4aH6h/t/ZU5UT5a0TI2dibkQ/umCmzp47hjB8qj9pteoVrmwLAIBvWT1YXVZ8N0EMD2dhQApUb2kVc7CC4b0z83TjRbM0Z1wmYSDtjpmUrR9fyO+b3z2wo11tvcy+AgDAp/pl9O/EMHwUWEAK7Gvr1/q9zAYNiqljovrhBTN1XhH7YiE9jJEuPXasvnP+dBVkcaVBP0s4VtWbmX0FAIB/2Z9VlZe8Qg7DR4EFpMgfNjSLrbCCIyNs9G+nTda/nz5ZmRF2JULqFGaF9c0PTNeVJ01QmE3XfO/hnR1q6k4QBAAA/lQbyUp8nxhSgwILSJF97f16ZBdXJAyac+fl6ycXzVLxhCzCwLAdPyVHP/vH2TpxWg5hBEDSsapi9hUAAL5ljb7Ixu2pQ4EFpNCfNrZwRcIAmp6foR9cMEOfOGE8M2YwJNGwUfnJE/Tt86arMJslg0Fx/44O1XfGCQIAAJ9+1FeXlawghtShwAJSqKErrrXb2wkigMLG6BPHj9MPPzJD0wsyCAQDVjIhSz+9aJYuWTBW9J/BEUs4untjM0EAAOBP/UnjsHF7ilFgASn2540tiiUcggioovFZ+smFs7RwwViFQ7QROLyMsNHi90zQDy6YqRmUnoGzcnMrVx4EAMC/blxVNn8bMaQWBRaQYm2xpNZsbSOIAMuMGJWdPEE/uXCmSieyNxbe6djJ2frpRbN08TFjRc8ZwM+J3qRWbuFzAgAAn9rXrd4fEkPqUWABaVC9uVVdfXyzHnSzx2bqBxfM1BfOmKIxmexrBGlcdkRfOGOKvnM+S02D7I8bm5mpCwCAT1ljP7+2/IRukkg9CiwgDbr7HVVv4cpSkIyks+eO0c0fna0PFuWzx1FARUJGCxeM1c8vma2z544RvwbBtb+jXw9u54q1AAD41D3VZaXVxJAeFFhAmqzZ2qaW3gRBQJJUmB3WZ0+brJ9eNEvHT80hkAD5h5m5uumjs1R28gRlRfjYDbrfvtispOVqtQAA+FCHCZnPEEP6RIgASI++hNXyF5r0hTOmEAbecNTYTF1/3nRtrOvRnc81aU9bH6H4VOnELF150gQtmJxNGJAk1TTF9MzeLoIAAMCfrqu8sriWGNKHr4KBNHp0V6deaeglCLzD8VNz9JN/nKnPnT5ZU8ZECcRHjhqbqW98YJp+eMFMyiu8wUq687lGMfcKAABfftA/fcKu4tsJIr3MwmU1jKWANJozLlM3XjiLK43hsJLW6pFdnVrxcovqOuME4lHzxmfq0gXj9L5Zeex1hnd4aGeHfv7kQYIAAMB/+p2QOWnllcVbiCK9WEIIpNnulj6t3d6uC0oKCAOHFDZGH5iXr7PnjtGjuzq1YlOrDnT0E4xHHDslWx8/dpxOYG8zHEZXv6PlLzQRBAAAPmSs/eHKK0sor0YABRYwAn6/oVlnzM7TmMwwYeCwwsbo3Hn5Omduvp7f3617XmnTxvoegnHpc/UPM3N18YKxKpmQRSA4wmdAk9pjSYIAAMB/tuU7GT8ihpFBgQWMgK6+pH6/oVnXvncSYeCIjJFOmZGrU2bkan9Hv/66rV1rt7erP8mK79FWmB3WuXPzdUFpgSbmsncZjmxnc5/W1rQTBAAA/uNI9tNLl8yJEcXIoMACRsj929v1oeICzR2XSRgYsOn5Gbr61In6+HHjtG5Xhx7c0aHadpYXjiQjacHkbH24tFDvm5mrMBvaYYCslW5/pkEO3TMAAH50e1V56ePEMHIosIAR4ljp18806PsXzBSnvxisgqywLj5mrC4+Zqx2NvfpkV0dWre7U119LEtKl+kFGTrzqDE6a84YTeVKkRiC+7e3a3sTX8oCAOA/tr4/nPVf5DCyKLCAEbS1MaZHdnXonLn5hIEhmzc+U/PGT9QVJ03Q+n1dempPl1480M0SwxQYlx3RGUfl6ey5+cyWxLB09CX1uw3NBAEAgC+Zz665YnYrOYwsCixghN35XJNOnJarwiw2dMfwZEaMzprz2gyh/qTVxroePbmnS+v3dak37hDQAE3Oi+rUGbk6fXaeSidmyzBFEinw2xea1MkMSQAA/MeoqqqspJIgRh4FFjDCOvuS+tUzDfrKWVMJAymTETZvbPzel5ikjfU92nCgRxsOdKuuM05Ab5IVCenoSVk6aVquTp2Zq8l5LA9Eam0+2KsHd3YQBAAA/tMcSUT/jRhGBwUWMAqe2tOlp/Z26bRZeYSBlMuMGJ06I1enzsiVNFEHu+J66UCPNtT1aEtDrzpiwZoVEg0blU7M0nGTc3TclGwVT8hiI3akTSzh6OdPHpRlRS8AAD5kP1exZE49OYwOCixglPxqfYOOnZytMZksJUR6Tc6L6vySAp1fUiBJOtDRr22NMW1rimlbQ0z72vt8c5U0I2lafoaKJmSqaHyWisZnae64TEXDFFYYGctfaNbBLmY9AgDgP3ZlVXnpH8lh9FBgAaOkLZbUb55t1BfPnEIYGFHT8jM0LT9D58577WICPXFHe1r7tK+tX3va+rWvrU972vpdv39PQVZYMwsyNK0gQzMKMjSrMENF47OUEw3xJGNUbKrv1X3b2ggCAAD/aUpGotcSw+iiwAJG0aO7O3XmUWN0yoxcwsCoyYmGdPSkbB09Kfstf97Wm1RdZ78auhJq6I6rsSuhxu64GrsTaulJKJZI70bx+Vlhjc+JaEJORBNzoxqfG9H4nIgm50U1PT+qPGYvwkViCUf/99RBsXIQAAD/scZ8dtXlcw+SxOiiwAJG2S/XN+jmSbOVm8GsEbhLYXZYhdnZOnrSof97wrHq7Euqq89RZ19Snf1JdfY5cqxV0rGKJewbJ/aJpJUxUm7Ga6VTyEjZr8+UyomGlJcRVm5GSHmZYeVlvPa/uRogvGTZ800sHQQAwJfsyuqykrvJYfRRYAGjrKUnoaXPN+qzp00mDHjrAyRkNDY7orHZZIFge7m+R3+taScIAAD8h6WDLsKUD8AFHtrRoRcP9BAEAHhMb9zR/z3VwNJBAAB8yfwbSwfdgwILcAEr6X+fqFdbLEkYAOAhdz7XpAaWDgIA4MNzNPOnqvLiCpJwDwoswCXaYknd8kS9LF/jA4AnPLWnSw/sYOkgAAA+1GhkPk8M7kKBBbjIhgM9WrmllSAAwOWauhP6xdOsKAAAwI+s0WeqyosaSMJdKLAAl/ndhmbVNMUIAgBcKulY/fSxOnX1O4QBAIDPWOn31WUlK0jCfSiwABeeGN30WL164pwYAYAb/fbFZm1r5IsGAAB8qDYezvwcMbgTBRbgQge74vrFUyxNAQC3efFAj1ax1BsAAD9yjA2Vr7liNh/0LkWBBbjUE3u69NDODoIAAJdoiyX1v0/Wi2ttAADgP0bmhsrFRQ+ThHtRYAEu9utnGrW/vZ8gAGCUWSv9z+P1autNEgYAAP7zQjir/3picDcKLMDFYglHP3m0XrEE+2EBwGi6++UWbazrIQgAAPynJ5S0V1QsWsDMAZejwAJcbk9bn25+/CBLVgBglDxb2627NzYTBAAA/vSlFUtKtxKD+1FgAR6wfl+XVrzcQhAAMML2d/Tr5sfrZfkWAQAAH7L3VZUV30YO3kCBBXjEH15q1nO13QQBACOkq9/RDx46oJ44y7gBAPChxkgyY4mM4Wsqj6DAAjzCWummx+u1j03dAWBE3nP/5/F61XXGCQMAAB9+1Mvq6oolc+qJwjsosAAP6Y07+vG6OmYDAECaLX+xSS/sZ9YrAAD+ZG6tWlxyDzl4CwUW4DHsxwIA6fXU3i6t3NxKEAAA+NMrid7c/0cM3kOBBXjQs7Xd+hNXxAKAlNvd0qdbnqjnyq8AAPhTLGTNFauvndZDFN5DgQV4VMXGFj2xp4sgACBFWnoT+uG6A+pLUF8BAOBT/7FicfGLxOBNFFiAR1lJNz9er431fHkAAMPVG3f0/YcOqKk7QRgAAPiR0Z+rykt+SRDeRYEFeFjCsfrxujrtae0jDAAYoqRjdeOjddrdwnspAAA+tSuSGf40MXgbBRbgcT1xR99j1gAADImVdOvTDdpwgNmsAAD4VNyEzBUVi+a1E4W3UWABPtDSk9D3Htqv7n6HMABgEH7/YrMe3tlBEAAA+JSR+X+VVxY/TRLeR4EF+MS+tn7dsO6A4kk2HwaAgbh/e7tWbGohCAAA/GtNZVnRzcTgDxRYgI9sOtirW548KEuHBQDv6vn93bp9fSNBAADgX7WyycUyhrMjn6DAAnzmiVc7tfzFJoIAgMOoaYrpJ4/WKUnbDwCAXyWM43yyavHRzUThHxRYgA9Vb27Vyi2tBAEAb7O7pU///eB+9SUorwAA8C1jvlF51fwnCMJfKLAAn7rr+SZVb6bEAoC/2d/Rr+89uF9dXPACAAAfs/edsLPoRnLwHwoswMeWv9Ck+7ZxtVgAqOuM61tr96stliQMAAD8a78UXnz99YZvq3yIAgvwMSvpV880aG0NJRaA4GrqTuj6+2vV2psgDAAA/Csu2U9WlRc1EIU/UWABPmcl3fZMgx7Z1UkYAAKnuSehb66tVWM35RUAAH5mrPliVXnp4yThXxRYQABYK/3vk/V6bDclFoDgaIsldf0D+3WwK04YAAD4+XxH+n3l4uJbScLfKLCAgHCsdMsTB/X03i7CAOB77bGkvrW2Vvvb+wkDAAB/25jszftnYvA/CiwgQJLW6meP1evZ2m7CAOBbLa8vG6ylvAIAwO/arGMuXX3ttB6i8D8KLCBgEo7Vj9fV6eGdHYQBwHcauuKUVwAABIM11l5dfVXxTqIIBgosIICS1urnTx7UPVvbCAOAb+xv79fX/1qruk72vAIAwP/s9yoXl1aRQ3BQYAFBfbuXdMezjVr+QhNhAPC83S19+vraWjX3cLVBAAACcC7zQCSr5LskESwRIgCCrWpzq/qTVlefOlGGOAB40I7mmL774AF19SUJAwAAn7PS3mTEfqp6keGDP2CYgQVAa7a26X+fOKiktYQBwFM2HezVt+/fT3kFAEAwxMJyPr768lKWkQQQM7AASJLW7epQPOnoC2dOUSTEXCwA7vfMvm799LE6xZOU7wAABII1n12xeP5zBBFMzMAC8IYn9nTpew8eUG/cIQwArnb/9nbd+AjlFQAAAXJL1eLiO4ghuCiwALzFy/U9+gYbIQNwKSvpTxtb9IunG1j2DABAcAYAD7bO3P8lggg2CiwA77C7pU/X3btPu1r6CAOAa8STVj97rF5/eqmZMAAACAgj7U5E7SfXnXsu37AHHAUWgENq6UnoG3+t1bO13YQBYNS19Sb19b/W6olXOwkDAIDg6LQKfYxN2yFRYAF4F7GEoxvWHVDV5lbCADBq9rX366v37dOO5hhhAAAQHI4x5sqq8qJNRAGJAgvAkT41rLT8hSbd+lSDkg77zQAYWRvre/Rf9+1TQ1ecMAAACBAr+43KsuJVJIG/ocACMCAP7GjX9x8+oB6uUAhghKytadf3Hjyg7n7edwAACBIjraguK/kRSeDNKLAADNiGAz362r37dJCZEADSKJ60uvWpg/rlemZ+AgAQNFZ6Md6bVy5jGATgLSiwAAzKvvZ+femevVq/t4swAKRcc09C31xbqwd2dBAGAADBc9AmQhevvnZaD1Hg7SiwAAxaT9zRjx+p0x3PNipp+WIEQGpsOdirr6zZq5omNmsHACCA4sbRopVXF+0jChxKhAgADIWVdM/WNu1u7dOX3j9VhdlhQgEwZGu3t+tXzzSyZBAAgKAyurbyqpJHCQKHwwwsAMOy+WCvvvyXvdra0EsYAAYtlnD008fq9cun2e8KAICgMjI/rCoruZMk8G4osAAMW0tPQt+8f79Wv9ImTj8BDNT+jn599d59euLVTsIAACC4Ko7fVfQNYsCRmIXLajjfBJAy/zAzV/9++hTlZtCPAzi8R3Z16rb1DYolHMIAACC4nk305p3Dpu0YCM4wAaTUM/u6dd29+7SzmU2YAbxTV7+jGx+p081P1FNeAQAQYEbaLYX+kfIKA/6dYQYWgHQIG6OPHVOoy08cr3DIEAgA1TTFdNNj9TrYFScMAACCrSVpnNNXlc3fRhQYKK5CCCAtktaqanOrNh3s1RfOmKxp+RmEAgT4/eDPL7eqYmOz2KcdAIDAi0vOZZRXGCyWEAJIq+1NMf3nPXu1ZisbvANB1Ngd17fW7tefXqK8AgAAsjL201Xl8x8iCgwWM7AApF1/0uo3zzZqY12PPnPaZBVmhQkFCICHdnbojmcb1RNnrysAACBZY75TXVayjCQwFOyBBWBE5WeF9Zn3TdJ7Z+YRBuBTLb0J3b6+Qc/s6yYMAADwN3+sKiu+XMbQQWBImIEFYER1xJK6YV2dPjAvX1edMlF5GaxkBvzCSlpb067lLzQx6woAALzZY7E2cxXlFYaDAgvAqHhoZ4eeqe3WlSeN14eKC8R1CgFvO9gV1y+eatDGeq6EDQAA3uKVSH/8kns/v6CPKDAcLCEEMOqOnZyta983SdO5UiHgOdZK9+9o19LnmhRLMOsKAAC8eaCgAyaSOL3yimP2EAaGiwILgCtkRowuO268Lj6mUOEQ87EAL6ht79fPnzyomqYYYQAAgLdrl7FnV5WVvkQUSAUKLACuMrswU//6vkkqnZhFGIBL9SWsqre0qnJTi+JJhhEAAOAdeh1jP7yyrPQxokCqUGABcN8bk6Sz5+br6lMmKC8zTCCAizxX263bn2lQU3eCMAAAwKEkJS2qKi+pJAqkEpu4A3AdK2ndrg5tqOvW5SdO0Afn5cuwqhAYVXta+/SrZxu15WAvYQAAgMOP5Y39YnVZKeUVUo4ZWABcb0ZBhq56zwSdPD2XMIAR1t3v6E8vNevebe1KWoYMAADg8IzVtyoXl3yPJJCW3y8KLABecfzUHF1zykTNLORqhUC6WUmP7urU0ucb1R5LEggAAHh3RrdVlZX8K0EgXVhCCMAzNtb16D/X7NUFJQX6xPHj2B8LSJMNB3r02xebtKuljzAAAMCRWa2KZBV/liCQThRYADwl6Vit2dqmR3Z1aOGx4/SP8wsVDbNBFpAKO5pjWv5Cs16u7yEMAAAwUI8UONFPLF1kmLKNtGIJIQBPm5afoU+cME5nzh7DRu/AEO1v79fvNjRr/d4uMSgAAACDsKk/nHnWmitmtxIF0o0CC4AvzCjI0MePHaf3zxmjEEUWMCDNPQlVbGzRgzs62KAdAAAMipF2yCTOqiw7po40MCK/cxRYAPxkZmGGFh0/XqfPymNGFnAYnX1JVW5q1V+2tSmeZBgAAAAGrdYmk++vXnL0q0SBkUKBBcCXZhZk6FJmZAFv0R5L6r6adq3e0qqeuEMgAABgKBpDSXvWiiWlW4kCI4kCC4CvzSzM0KULKLIQbA1dcd3zSpvWbm9XPzOuAADA0LWFrPnAisXFLxIFRhoFFoBAmFWYoY8ePVZnzRnDVQsRGHva+lS5qVVPvNoph097AAAwDEbqluN8uPKq+U+QBkbld5ACC0CQFGSF9YF5+bro6EKNy44QCHxpd0ufVmxq0VN7uKogAABIiV5rzIXVZcXriAKjhQILQCBFw0Znz8nXR48p1MyCDAKB5yWt1TP7uvWXrW3afLCXQAAAQKrEjdHCyrKSNUSB0USBBSDwjp6UrYULxuo9M3LF4kJ4TXssqYd2dui+bW1q7E4QCAAASKWksfaKysWlfyIKjDbWzwAIvFcaevVKQ69mFWbowvmFOvOoMcqJhggGrlbTFNO929r05J4uxdmYHQAApJ41xv5rZTnlFdyBGVgA8DbRsNGpM3J1fnGBjpuaw6wsuEY8afVsbbfu2dqmrQ0sEwQAAGlk7ZeqFpf+jCDgFszAAoC3iSetntzTpSf3dGl6QYY+OC9f58zLV2FWmHAwKna19Gndzg49urtTHX1JAgEAAGllpeuqKa/gMszAAoABCBnp2Ck5Or+4QO+dlauwYV4W0qulN6Gn9nTpoZ0d2t3SRyAAAGBEWOmb1eUl/00ScBtmYAHAADhW2ljXo411PRqXE9E5c8fojNljNGdcJuEgZfoSVk/v7dIjuzu0sa5HDl8xAQCAEUR5BTdjBhYADMPUMVGdPnuMTpudp7mUWRiCpLXaXN+rR3d36qm9XeqNO4QCAABGvhyw+lbl4pLvkQRc+ztKgQUAqTExN6L3zszT6bPzVDopm83fcVjxpNVLdT16rrZbz+zrUluMfa0AAMCoVgPfriov/i45wNW/pRRYAJB6U8ZEdfrsPJ02a4zmjs+kzIK6+x09v79b6/d26cUDPYolmGkFAABcUApY+53KxaXXkwRc/7tKgQUA6VWYHdZJ03J14rQcnTA1R/mZXM0wKFp6EnqutltP7+vSy/W9SrKpFQAAcFMhIP24srzkOpKAJ35fKbAAYATfdI00d1ymjp/yWpl1zORsRULMz/KLWMJRTWNML9X1aGN9j3Y194kPWQAA4M6BqW6sKiv5fwQBz/zKUmABwOjJzQjp+Kk5Omlajo6bkqPJeVFC8ZCkY7WtMaaN9a9doXJ7U5+Slo9VAADgclY/qVpc8hWCgJdQYAGAi4zNjmj+xCzNn5St0olZmjsukxlaLtKXsNrZElNNY0ybDvZqy8Fe9rICAACeYmV+Wl1e/GWSgNdQYAGAi4VDRkeNzdDRE7M1f1K2FkzOVkEWe2iNlNbehF5piGlrQ692tvRpR3NM8SQfmwAAwKvsj6rKS79GDvAiCiwA8Jhp+RmaOy5Ts8dmaFZhpmYXZmgSSw+HN5ST1NgV1772fu1oiqmmKabtTTF19TO7CgAA+GbAc0PV4pKvEgS8KkIEAOAtBzr6daCjX4+/+vc/y46GNC0/qpkFmZpZmKGZBRkqmpClQmZrvUNrb0L72vq1r73/jf//amufeuOUVQAAwJeskf1K5eLSnxIFvIwCCwB8oDfuaGdzn3Y2973lz8flRDR1TFST8l7/Jzfy+r9HNC4norDx3/5aScequSehpu6EGrsTauiKq6E7rn1t/apt71cPRRUAAAgOa6y+ULm49H+JAl5HgQUAPtbSk1BLT0KbD/a+47+FjdH43MgbpdbEvKjGZoeVnxnWmDf+CWlMZtgVG8knHavOfkddfUl19iXV1e+o5fWiqqE7rsbuhBq74mrtTchhcTwAAEBSRv9cWV5yJ1HADyiwACCoIxprX5ud1BWXDlFwvVl2NPSOUis7ElJGxCj6ermVl/nacsVIyCgzYt74uTfP8rKSuvuTkqSEY9WXeK1p6ks4b2yO3hN31PWmoupvZRVL/AAAAAYsLpkrqsqKK4gCfkGBBQA4ot74awVSQ1ecMAAAANytzxr7yeqykmqigJ9QYAEAAAAA4A89Mrqkuqz0fqKA31BgAQAAAADgfV3Ghj5WWV70MFHAjyiwAAAAAADwtlZH+sjKxUXriQJ+RYEFAAAAAIB31Tmh5IdXXnn0y0QBP6PAAgAAAADAg4y0O2FC56+6smQHacDvKLAAAAAAAPCeTYmo8+FVnyo5QBQIghARAAAAAADgKesiWeEzV31qPuUVAoMCCwAAAAAAz7ArI1nZF1YsmtdOFggSCiwAAAAAADzASEtbZx74p4pFM3tJA0HDHlgAAAAAALid1Q2V5cVfkymxhIEgYgYWAAAAAADuZY3sl6sWl3xVxlBeIbCYgQUAAAAAgDslZPQvlWWldxIFgo4CCwAAAAAAlzFSt2PtZdXlpfeSBkCBBQAAAACAy9h6I/vR6sXznyML4DUUWAAAAAAAuISRdiRM+CNVZUU7SAP4OzZxBwAAAADABYzsk/GIPW0V5RXwDhRYAAAAAACMvor8ZMYHV19e2kQUwDtRYAEAAAAAMLpuOWFX8SeXLpkTIwrg0NgDCwAAAACA0ZGQ9O9V5SW/rCIL4F1RYAEAAAAAMPK6QrKfWFFe+heiAI6MAgsAAAAAgJFkdSAk848rFpe8SBjAwFBgAQAAAAAwcjZFTPiiivJ5e4kCGDgKLAAAAAAARoIx98aMPnnvlfM6CAMYHK5CCAAAAABAmhnp9tYZtR+798piyitgCJiBBQAAAABA+iSMNV+oXFx8K1EAQ0eBBQAAAABAejRbY/6pqrx4HVEAw0OBBQAAAABA6m1KyPnY6rL5u4kCGD72wAIAAAAAIKXsfZGs8JmryymvgFRhBhYAAAAAAKlzSySr5D8rFpkkUQCpQ4EFAAAAAMDw9VnpX6vLS5YSBZB6FFgAAAAAAAxPk2T+qbq8+BGiANKDPbAAAAAAABgiK71owolTqiivgLQKSeogBgAAAAAABsfKLo9mZZ9RecUxe0gDSK+IpEZJ+UQBAAAAAMCAJGTMN6rLSm4gCmBkRCT1EQMAAAAAAAPSaGzoE5XlRQ8TBTByIlbqM+QAAAAAAMC7MrJPJqL2slWfKjlAGsDIChnLDCwAAAAAAN6NkW4PZyXOXfWp+ZRXwCiIyFBgAQAAAABwGH1W5rNV5cW/IQpg9LxWYFmCAAAAAADgbWqttR+vXlzyDFEAoytirOmxNFgAAAAAALzBSg8kI/ZTqy8vbSINYPRFrFWT2MUdAAAAAABJspK9IZpV8o3qRSZJHIA7RGScJtFgAQAAAADQHJItX1Fe+heiANwlYqQmFhACAAAAAALuWZtMLlqx5OhXiQJwn5C1Yj0vAAAAACCorKRbJvZ2nFFNeQW4VsSETJNlChYAAAAAIHjardE11WUlK4gCcLeI49hGY9gDCwAAAAAQHFbmuaSSi1aXzd9NGoD7hWwyXEcMAAAAAICAsDLmZ5N6209fXU55BXhF5KS98/a/NHd7n6RM4gAAAAAA+FiHZD5dVVZcQRSAtxhJWnhXTY2MiokDAAAAAOBTz9hk8hNs1A54U+j1/8u0SQAAAACAH1lJt0Sy4u+nvAK8K/L6y3kXUQAAAAAAfOagTOiqqrKi+4gC8LaQJFkxAwsAAAAA4B9Gplo2uYDyCvCHiCSFrNlljSUNAAAAAIDX9Vij/6gqK76dKAD/iEiSNXYzUQAAAAAAPG6TE0pevvLKo18mCsBfQpIUySqukdRDHAAAAAAAD7KSbom1mVMorwB/Mn/7l0uWbX/WyJ5CJAAAAAAADzlorV1Svbj0XqIA/Cv0939xXiIOAAAAAIBXWOmvkWT0RMorwP8if3/lm5f+Ph8LAAAAAADX6jJWX65aXHIbUQDB8KYCSxRYAAAAAAC3eyoUDi9eccW87UQBBMcbSwjDOeGXJDlEAgAAAABwoZiR/fIJu4rPpLwCguctc64WLqt5SdLxxAIAAAAAcJGNMra8qqyUvZuBgAq99X+ax4gEAAAAAOASCVndEMmKn0p5BQRb5K3/03lcMp8lFgAAAADAKNtsndDi6quKnicKAG+ZgRWxYgYWAAAAAGA0OZJuibWZ91BeAfibd1x3cOGymt2SjiIaAAAAAMAIn6DulqOrKq8qeZQ0ALxZ6O1/YGWZhQUAAAAAGEmOpFu61Hsc5RWAQ4m8/Q9CCt1vZcuIBgAAAACQbkba4Rjzz9VlxetIA8DhvGMGVjzi3KvX2m8AAAAAANIlLqsbetvMsZRXAI7EHOoPL11W87SV3ks8AAAAAIA0nIluMDLXVJYVv0AYAAYidMg/tVpDNAAAAACAFOuVMV+NZBafQnkFYDAih/pDx4b+YozzXeIBAAAAAKSE0aNykv9cVX50DWEAGPxbyKFYaxYu214ro2lEBAAAAAAYhjZrdF31lcW/kjGWOAAMxaGXEBpjFdJq4gEAAAAADJnRnyPJ6NHVZSW3U14BGI7I4f6Dlfmjkb2WiAAAAAAAg2P3yIa+UFVevJIsAKRC6HD/4cSdRY9K2k9EAAAAAIABSki6JRm3x1UtprwCkDrm3f7jJctqbjLSF4kJAAAAAHAEj0mhf6sqL9pEFABSLfSu/9XaPxARAAAAAOBdtFijL56wq/gcyisA6WKO9BcuXVaz3UpFRAUAAAAAeBNrZX+bjOg/V19e2kQcANIpcqS/4Bj9wVh9k6gAAAAAAJIkow3GmM9UXVnyNGEAGAmhI/2FqA3/WlKSqAAAAAAg2IzULWO+2jpj/6mVVxZTXgEYyfefI7tkWc0aI11IXAAAAAAQUNbeHZH+s2JxKVerBzDiIgP5SyFjbrPWUmABAAAAQPC8EpL5jxWLS/5KFABGS2ggfymcWbRGsnuICwAAAAACo8UafTGSVXzcivJiyisAo2pABVbFIpO0JnQncQEAAACA7yWMdHsiYkury0purlhk2BMZwKiLDPQvRh3n1wljvi4pSmwAAAAA4ENGax1j/mPllcVbCAOAu96eBmHh8pqlslpMbAAAAADgqxPDHVbmv6rKiytIA4AbhQb1t61ukOQQGwAAAAB4n5G6jbXfyU9Gj6O8AuDy96vBWbis5h5JFxEdAAAAAHiWI6PlRomvVZYdU0ccANwuMtgfMI5+bEMUWAAAAADgTeYhY/SVyrLiF8gCgGfeuYbyQwuX1Twp6TTiAwAAAADPeEUy32apIAAvCg3lh4wxPyI6AAAAAPAAqwNW5tORrGL2uQLgWWaoP7jwrpqnZPQ+IgQAAAAAV57sdVurnycTzvdXXTO/k0QAeFlkqD8Ykr7pSPcTIQAAAAC4SsJId4ST0W9XLJlTTxwA/MAM54cXLtv+oGQ/QIwAAAAAMPqs9IBR6D+qyos2kQYAP4kM54dNSF+3jp4iRgAAAAAYRVZPy9ivVJeXPk4YAPzIDPcGFt5Vs1JGHyNKAAAAABhxmyXznaqyoj/LGEscAPwqNNwbcMLma5LiRAkAAAAAI2absfaTJ+wqPr6qvLiC8gqA35lU3Mgly2puMtIXiRMAAAAA0sdKe2X0/bYZ++9Yd+65CRIBEBSRVNxIX8h8O8uxn5A0lUgBAAAAIOUaZMzPChORm5cumRMjDgBBY1J1Q5cs236Nkf01kQIAAABAyjTLmBsjmVm3VCya2UscAIIqkqobOnFX0Z0b527/Zyu9l1gBAAAAYFg6ZXVrJDv8w4pF89qJA0DQmVTe2MXLat4bkp5UCjaHBwAAAIAA6jDSLX3hzJ+tuWJ2K3EAwGtMqm9w4bKamyV9nmgBAAAAYMA6ZPWL/kjmDRRXAPBOkVTfYKI372uR7K6LJM0jXgAAAAB4V03G2v9znIz/qV4yp404AODQTDpu9NK7dpxrjfNgum4fAAAAADyuwVj7i95w6Gf3XlncQRwA8O7SVjAtXLb9dsn+MxEDAAAAwBsOypibuKogAAxOJF03HAvpy1mOLpA0k5gBAAAABJvdY425qTARvW3pkjkx8gCAwUnrEr+PL9v+YUf2XrGUEAAAAEAwT7lqrOwPJ/V2/O72a0+JkwcADPHdNN13sPCumhtl9GWiBgAAABAgL8jYmyOZJb+rWGSSxAEAwxNJ9x1MjHX8V1N2/vut9F7iBgAAAOBj1koPWplbVpYXryYOAEidEVnad8nS7fNMyL4gKZ/IAQAAAPhMv5X9U9gJ3bDiquLNxAEAqTdie1MtvGvbYhmzlMgBAAAA+ESnpDtNyNxYeWVxLXEAQPqM6ObqC5fXLJXVYmIHAAAA4GH7jOzNibi9fdU18zuJAwDSLzKid5aZ/Zl4LLbAyJ5C9AAAAAA8ZqOR+cmE3vY/ckVBABhZZqTv8OI7dswMRZznJE0ifgAAAAAu51jpIStzy8qyontkjCUSABh5ZjTu9NKlW8+wodBDkjJ4CgAAAAC4UIeR/miS9qYVS0q3EgcAjC4zWnd8yfJtnzPW/C9PAQAAAADXsNpuQ/q/aGb8NxWLFnQRCAC4gxnNO1941/ZfydhP8zQAAAAAGEWOpL/I6JaqK4sfYJkgALjPqBZYl91tw4lYzQrJXMxTAQAAAGCEdRrpD1b6n6rykleIAwDcy4z2AVx29+a8RF90nazew9MBAAAAYAS8Yo291em3d626Zn4ncQCA+xk3HMRld2yfmIzYJ61UxFMCAAAAIA36JK0KWd2+orz4QZYJAoC3GLccyMeW7ygKW+cJSZN4WgAAAACk6JSnRkZ3ROK6o+Lq4kbyAACPvpu76WAW3rX9NBm7VlIeTw0AAACAIeqz0oqQo9sqryp5lDgAwPuM2w7o0qVbz7Ch0H2ixAIAAAAwuNMbZlsBgF/f4d14UJf8dtsHjWNWS8rmKQIAAADwLvolrWRvKwDwN+PWA1u4fMcFsk61pEyeJgAAAABvO5N53ji6yyr5+6rFRzcTCAD4/W3fxS5etv2jIdk/S8rgqQIAAACCztbLmt/KhO6qKi/aRB4AEBzG7Qf48WXbLnRkKiTl8HQBAAAAgdMn6X7JLJvY2159+7WnxIkEAILHeOEgL16+7f0ha1ZLKuApAwAAAAJxpvK8lZZH4+b3bMgOADBeOdBLl28/2Vp7n6SJPG0AAACAL9VJqpCxd1SVlb5EHACAvzFeOtiP37ltvhM2ayXN5KkDAAAAfKHNSNWOY/4QzSl6sGKRSRIJAODtjNcO+NLfbZltk5E1khbw9AEAAACe1GNlVss4f+xrDd177+eL+4gEAPBujBcP+mO/2TomHA39XtI/8hQCAAAAnpC00sPG2OXJflu16pr5nUQCABgo49UDv+xuG47Htt9kpH/naQQAAABcyZExT1nZCjZjBwAMh/H6A7hkec2/GKv/kxTh6QQAAABccZbxvJWWh5S4u7LsmDoCAQAM/6PFBz6+bNuFjszvJBXylAIAAAAjLinZR401VclkqHrl1UX7iAQAkErGLw/ksmU7ZyWU/LOkU3laAQAAgLTrs9JjMronmoj+qWLJnHoiAQCki/HTg7nqzt1Z7eH4DZI+z1MLAAAApFyvpAdlbEUkM7KyYtG8diIBAIwE48cHtXD5tnJZ8wtJOTzFAAAAwLC0WNk1RqHV3er5y9ryE7qJBAAw0oxfH9gld9acaML6g6T5PM0AAADAoOyUtEZyVrbOrHt03bnnJogEADCajJ8f3FV37s5qD8Wvl9FXJIV4ugEAAIBDSsqYpyWttknzQPVVRc8TCQDATUwQHuTC5TUfktWdkqbzlAMAAACSpEZJ62TsPexnBQBwOxOUB3rJnbsLTTj+c0lX8LQDAAAggBwZvShHD8jYe6rKSp6QMZZYAABeYIL2gC9ZXvMpY3WTpMk8/QAAAPC5BkkPGZm/hBO6r+Lq4kYiAQB4kQnig359NtZ3JH1O7I0FAAAA/+ix0pPGmAds0jxw4qvzXrz+euMQCwDA60yQH/zCZdvOlMwvJS3gVwEAAAAelJTRBjl6ICQ90NNuHrv388V9xAIA8BsT9AAuu3tzRrI3ep01+qqkHH4lAAAA4HLbJPOANc4DSmSsq14yp41IAAB+Z4jgNRffsWNmKJr8gay5glwAAADgogH7DkmPO9IjoZB5oPLK4lpSAQAE8PMQb3bJ0h3vMWHnZ7I6izQAAAAwCnYZ6QFr7BMmlHyk8opj9hAJACDoKLAO49K7tv+TNfYGSXNJAwAAAGkSl/ScjB53rHksEc54fM0Vs1uJBQCAt6LAehf/cttz0cbsMVdJ5r8kHUUiAAAAGObgu9vKrLdGjxqbfCzRm//06mun9ZAMAABH/AzFkfzLbc9FG3PGfErWfEvSPBIBAADAACQlbbOyz8uY5421z0eyEs9ULFrQTzQAAAwOBdYgvH7FwiXW2K9JZjaJAAAA4A1WB4wxz1hpvbFmfSKReG7VNfM7CQYAgOGjwBqC66+3oRfn7rgoLOerVuZ0EgEAAAjcILrbGrNB1j4vY58PJUPPr7iqeDPJAACQts9eDMclS3e8R6HkF4zMpyRFSAQAAMB32mTM5r+VVTYZ3hzN6XuZpYAAAIwcCqwU+eiyrXMiJvw5WVsuaQKJAAAAeI4jq50y2mCM3WCsNsSjdsOqT80/QDQAAIwuCqwUe22frIyP2ZCulrXnSwqTCgAAgOt0StoqmQ3GaoNs8qVEUhvZswoAAHeiwEqjS3+7fYaSdok1ukrSXBIBAAAYca1G9hWr0GZZZ2vIhDbbcHxr5RXH7CEaAAC8gwJrhHx86fYF1jiXWZnLZVRMIgAAACnVKqNd1totxoQ2O1ZbImG7ecXlxbtljCUeAAC8jQJrFFz6222nyjH/JOkyK80hEQAAgAFpMtJOR9opo53GsTuNtTussVurFh/dTDwAAPgXBdYo+/jvauYmHZ1nrM6T9BFJeaQCAAACrFVGu2Rf/ydkt9hkeLNseGf1kjltxAMAQDBRYLnIR287kBPJ6TnLWufDRvqQpGN4jgAAgI/EJLNXUq2kWmvsHkm1YWtrldSuns7Q7ns/X9xHTAAA4O0oR1zsot/tGZuVjJ1mZU6zsmcYmX+wUi7JAAAAF+oz0gEr1crYPbKqtUb7rQ3tiVjVhpKqrbi6uJGYAADAUFBgecg5Dz8cGVc743hH9hRZHWtkj5XM8ZLGkw4AAEiDdkn1khpl1Ghl60KOGq1Ro2TqHGMbIwk1JpVRz/I+AACQThRYPnDp8i1TrSLHyrHHyYTmSvYovbY5/FGSckgIAIBAi0tqk1WbjNqk1/4xUqukNke2TSbUJtk2ObZNNtwQitiDvS1qZDkfAABwi/8PYz1ag+GJDNMAAAAldEVYdGRhdGU6Y3JlYXRlADIwMjItMDMtMTBUMTA6MjY6NTkrMDA6MDATOYHfAAAAJXRFWHRkYXRlOm1vZGlmeQAyMDIyLTAzLTEwVDEwOjI2OjU5KzAwOjAwYmQ5YwAAAABJRU5ErkJggg==;" vertex="1" parent="1">
          <mxGeometry x="90" y="330" width="43.33" height="42.5" as="geometry" />
        </mxCell>
        <mxCell id="7g4eMx9J1FZ1LIrWjxAy-33" value="" style="rounded=0;whiteSpace=wrap;html=1;" vertex="1" parent="1">
          <mxGeometry x="138.33" y="390" width="161.67" height="90" as="geometry" />
        </mxCell>
        <mxCell id="7g4eMx9J1FZ1LIrWjxAy-34" value="OpenShift Local Cluster" style="text;html=1;align=left;verticalAlign=middle;resizable=0;points=[];autosize=1;strokeColor=none;fillColor=none;" vertex="1" parent="1">
          <mxGeometry x="170" y="360" width="150" height="30" as="geometry" />
        </mxCell>
        <mxCell id="7g4eMx9J1FZ1LIrWjxAy-4" value="" style="image;sketch=0;aspect=fixed;html=1;points=[];align=center;fontSize=12;image=img/lib/mscae/OpenShift.svg;" vertex="1" parent="1">
          <mxGeometry x="120" y="365.5" width="50" height="46" as="geometry" />
        </mxCell>
      </root>
    </mxGraphModel>
  </diagram>
</mxfile>
